G04 #@! TF.FileFunction,Legend,Top*
%FSLAX46Y46*%
G04 Gerber Fmt 4.6, Leading zero omitted, Abs format (unit mm)*
G04 Created by KiCad (PCBNEW 4.0.7) date 02/05/18 06:25:40*
%MOMM*%
%LPD*%
G01*
G04 APERTURE LIST*
%ADD10C,0.100000*%
%ADD11C,0.300000*%
%ADD12C,0.120000*%
%ADD13C,0.150000*%
G04 APERTURE END LIST*
D10*
D11*
X33014286Y-122478571D02*
X33514286Y-123978571D01*
X34014286Y-122478571D01*
X35300000Y-123978571D02*
X34442857Y-123978571D01*
X34871429Y-123978571D02*
X34871429Y-122478571D01*
X34728572Y-122692857D01*
X34585714Y-122835714D01*
X34442857Y-122907143D01*
X35942857Y-123835714D02*
X36014285Y-123907143D01*
X35942857Y-123978571D01*
X35871428Y-123907143D01*
X35942857Y-123835714D01*
X35942857Y-123978571D01*
X36942857Y-122478571D02*
X37085714Y-122478571D01*
X37228571Y-122550000D01*
X37300000Y-122621429D01*
X37371429Y-122764286D01*
X37442857Y-123050000D01*
X37442857Y-123407143D01*
X37371429Y-123692857D01*
X37300000Y-123835714D01*
X37228571Y-123907143D01*
X37085714Y-123978571D01*
X36942857Y-123978571D01*
X36800000Y-123907143D01*
X36728571Y-123835714D01*
X36657143Y-123692857D01*
X36585714Y-123407143D01*
X36585714Y-123050000D01*
X36657143Y-122764286D01*
X36728571Y-122621429D01*
X36800000Y-122550000D01*
X36942857Y-122478571D01*
X123221429Y-45557143D02*
X121721429Y-45914286D01*
X122792857Y-46200000D01*
X121721429Y-46485714D01*
X123221429Y-46842857D01*
X123221429Y-47700000D02*
X123221429Y-47985714D01*
X123150000Y-48128572D01*
X123007143Y-48271429D01*
X122721429Y-48342857D01*
X122221429Y-48342857D01*
X121935714Y-48271429D01*
X121792857Y-48128572D01*
X121721429Y-47985714D01*
X121721429Y-47700000D01*
X121792857Y-47557143D01*
X121935714Y-47414286D01*
X122221429Y-47342857D01*
X122721429Y-47342857D01*
X123007143Y-47414286D01*
X123150000Y-47557143D01*
X123221429Y-47700000D01*
X121721429Y-49842858D02*
X122435714Y-49342858D01*
X121721429Y-48985715D02*
X123221429Y-48985715D01*
X123221429Y-49557143D01*
X123150000Y-49700001D01*
X123078571Y-49771429D01*
X122935714Y-49842858D01*
X122721429Y-49842858D01*
X122578571Y-49771429D01*
X122507143Y-49700001D01*
X122435714Y-49557143D01*
X122435714Y-48985715D01*
X121721429Y-50485715D02*
X123221429Y-50485715D01*
X123221429Y-50842858D01*
X123150000Y-51057143D01*
X123007143Y-51200001D01*
X122864286Y-51271429D01*
X122578571Y-51342858D01*
X122364286Y-51342858D01*
X122078571Y-51271429D01*
X121935714Y-51200001D01*
X121792857Y-51057143D01*
X121721429Y-50842858D01*
X121721429Y-50485715D01*
X121864286Y-53985715D02*
X121792857Y-53914286D01*
X121721429Y-53700000D01*
X121721429Y-53557143D01*
X121792857Y-53342858D01*
X121935714Y-53200000D01*
X122078571Y-53128572D01*
X122364286Y-53057143D01*
X122578571Y-53057143D01*
X122864286Y-53128572D01*
X123007143Y-53200000D01*
X123150000Y-53342858D01*
X123221429Y-53557143D01*
X123221429Y-53700000D01*
X123150000Y-53914286D01*
X123078571Y-53985715D01*
X121721429Y-55342858D02*
X121721429Y-54628572D01*
X123221429Y-54628572D01*
X123221429Y-56128572D02*
X123221429Y-56414286D01*
X123150000Y-56557144D01*
X123007143Y-56700001D01*
X122721429Y-56771429D01*
X122221429Y-56771429D01*
X121935714Y-56700001D01*
X121792857Y-56557144D01*
X121721429Y-56414286D01*
X121721429Y-56128572D01*
X121792857Y-55985715D01*
X121935714Y-55842858D01*
X122221429Y-55771429D01*
X122721429Y-55771429D01*
X123007143Y-55842858D01*
X123150000Y-55985715D01*
X123221429Y-56128572D01*
X121864286Y-58271430D02*
X121792857Y-58200001D01*
X121721429Y-57985715D01*
X121721429Y-57842858D01*
X121792857Y-57628573D01*
X121935714Y-57485715D01*
X122078571Y-57414287D01*
X122364286Y-57342858D01*
X122578571Y-57342858D01*
X122864286Y-57414287D01*
X123007143Y-57485715D01*
X123150000Y-57628573D01*
X123221429Y-57842858D01*
X123221429Y-57985715D01*
X123150000Y-58200001D01*
X123078571Y-58271430D01*
X121721429Y-58914287D02*
X123221429Y-58914287D01*
X121721429Y-59771430D02*
X122578571Y-59128573D01*
X123221429Y-59771430D02*
X122364286Y-58914287D01*
X66164286Y-119978571D02*
X66664286Y-121478571D01*
X67164286Y-119978571D01*
X68164286Y-120692857D02*
X68378572Y-120764286D01*
X68450000Y-120835714D01*
X68521429Y-120978571D01*
X68521429Y-121192857D01*
X68450000Y-121335714D01*
X68378572Y-121407143D01*
X68235714Y-121478571D01*
X67664286Y-121478571D01*
X67664286Y-119978571D01*
X68164286Y-119978571D01*
X68307143Y-120050000D01*
X68378572Y-120121429D01*
X68450000Y-120264286D01*
X68450000Y-120407143D01*
X68378572Y-120550000D01*
X68307143Y-120621429D01*
X68164286Y-120692857D01*
X67664286Y-120692857D01*
X69092857Y-121050000D02*
X69807143Y-121050000D01*
X68950000Y-121478571D02*
X69450000Y-119978571D01*
X69950000Y-121478571D01*
X70235714Y-119978571D02*
X71092857Y-119978571D01*
X70664286Y-121478571D02*
X70664286Y-119978571D01*
X71378571Y-119978571D02*
X72235714Y-119978571D01*
X71807143Y-121478571D02*
X71807143Y-119978571D01*
X67914287Y-96528571D02*
X67200001Y-96528571D01*
X67128572Y-97242857D01*
X67200001Y-97171429D01*
X67342858Y-97100000D01*
X67700001Y-97100000D01*
X67842858Y-97171429D01*
X67914287Y-97242857D01*
X67985715Y-97385714D01*
X67985715Y-97742857D01*
X67914287Y-97885714D01*
X67842858Y-97957143D01*
X67700001Y-98028571D01*
X67342858Y-98028571D01*
X67200001Y-97957143D01*
X67128572Y-97885714D01*
X68414286Y-96528571D02*
X68914286Y-98028571D01*
X69414286Y-96528571D01*
X33671429Y-104878571D02*
X32814286Y-104878571D01*
X33242858Y-104878571D02*
X33242858Y-103378571D01*
X33100001Y-103592857D01*
X32957143Y-103735714D01*
X32814286Y-103807143D01*
X34242857Y-103521429D02*
X34314286Y-103450000D01*
X34457143Y-103378571D01*
X34814286Y-103378571D01*
X34957143Y-103450000D01*
X35028572Y-103521429D01*
X35100000Y-103664286D01*
X35100000Y-103807143D01*
X35028572Y-104021429D01*
X34171429Y-104878571D01*
X35100000Y-104878571D01*
X35528571Y-103378571D02*
X36028571Y-104878571D01*
X36528571Y-103378571D01*
D12*
X76470000Y-83870000D02*
X76470000Y-81330000D01*
X76470000Y-81330000D02*
X73800000Y-81330000D01*
X73800000Y-83870000D02*
X73800000Y-122100000D01*
X73800000Y-78660000D02*
X73800000Y-81330000D01*
X89170000Y-81330000D02*
X91840000Y-81330000D01*
X89170000Y-81330000D02*
X89170000Y-119430000D01*
X89170000Y-119430000D02*
X91840000Y-119430000D01*
X76470000Y-83870000D02*
X73800000Y-83870000D01*
X76470000Y-83870000D02*
X76470000Y-119430000D01*
X76470000Y-119430000D02*
X73800000Y-119430000D01*
X73800000Y-122100000D02*
X91840000Y-122100000D01*
X91840000Y-122100000D02*
X91840000Y-78660000D01*
X91840000Y-78660000D02*
X73800000Y-78660000D01*
X27700000Y-98050000D02*
X28700000Y-98050000D01*
X28700000Y-96350000D02*
X27700000Y-96350000D01*
X46650000Y-97500000D02*
X46650000Y-96500000D01*
X44950000Y-96500000D02*
X44950000Y-97500000D01*
X121750000Y-82350000D02*
X122750000Y-82350000D01*
X122750000Y-80650000D02*
X121750000Y-80650000D01*
X27550000Y-103350000D02*
X30750000Y-103350000D01*
X30750000Y-104850000D02*
X27550000Y-104850000D01*
X30750000Y-104850000D02*
X30750000Y-103350000D01*
X67200000Y-94350000D02*
X70400000Y-94350000D01*
X70400000Y-95850000D02*
X67200000Y-95850000D01*
X70400000Y-95850000D02*
X70400000Y-94350000D01*
X42580000Y-86440000D02*
X41650000Y-86440000D01*
X39420000Y-86440000D02*
X40350000Y-86440000D01*
X39420000Y-86440000D02*
X39420000Y-89600000D01*
X42580000Y-86440000D02*
X42580000Y-87900000D01*
X96630000Y-117990000D02*
X95700000Y-117990000D01*
X93470000Y-117990000D02*
X94400000Y-117990000D01*
X93470000Y-117990000D02*
X93470000Y-121150000D01*
X96630000Y-117990000D02*
X96630000Y-119450000D01*
X102630000Y-117990000D02*
X101700000Y-117990000D01*
X99470000Y-117990000D02*
X100400000Y-117990000D01*
X99470000Y-117990000D02*
X99470000Y-121150000D01*
X102630000Y-117990000D02*
X102630000Y-119450000D01*
X108630000Y-117990000D02*
X107700000Y-117990000D01*
X105470000Y-117990000D02*
X106400000Y-117990000D01*
X105470000Y-117990000D02*
X105470000Y-121150000D01*
X108630000Y-117990000D02*
X108630000Y-119450000D01*
X114130000Y-117990000D02*
X113200000Y-117990000D01*
X110970000Y-117990000D02*
X111900000Y-117990000D01*
X110970000Y-117990000D02*
X110970000Y-121150000D01*
X114130000Y-117990000D02*
X114130000Y-119450000D01*
X28550000Y-101780000D02*
X27550000Y-101780000D01*
X27550000Y-100420000D02*
X28550000Y-100420000D01*
X68450000Y-92780000D02*
X67450000Y-92780000D01*
X67450000Y-91420000D02*
X68450000Y-91420000D01*
X115750000Y-80820000D02*
X116750000Y-80820000D01*
X116750000Y-82180000D02*
X115750000Y-82180000D01*
X97300000Y-100520000D02*
X98300000Y-100520000D01*
X98300000Y-101880000D02*
X97300000Y-101880000D01*
X97300000Y-102520000D02*
X98300000Y-102520000D01*
X98300000Y-103880000D02*
X97300000Y-103880000D01*
X99370000Y-112250000D02*
X99370000Y-111250000D01*
X100730000Y-111250000D02*
X100730000Y-112250000D01*
X102120000Y-112250000D02*
X102120000Y-111250000D01*
X103480000Y-111250000D02*
X103480000Y-112250000D01*
X104870000Y-112250000D02*
X104870000Y-111250000D01*
X106230000Y-111250000D02*
X106230000Y-112250000D01*
X107620000Y-112250000D02*
X107620000Y-111250000D01*
X108980000Y-111250000D02*
X108980000Y-112250000D01*
X63380000Y-72250000D02*
X63380000Y-73250000D01*
X62020000Y-73250000D02*
X62020000Y-72250000D01*
X104630000Y-72750000D02*
X104630000Y-73750000D01*
X103270000Y-73750000D02*
X103270000Y-72750000D01*
X43980000Y-72750000D02*
X43980000Y-73750000D01*
X42620000Y-73750000D02*
X42620000Y-72750000D01*
X83730000Y-72550000D02*
X83730000Y-73550000D01*
X82370000Y-73550000D02*
X82370000Y-72550000D01*
X72020000Y-73250000D02*
X72020000Y-72250000D01*
X73380000Y-72250000D02*
X73380000Y-73250000D01*
X113270000Y-73750000D02*
X113270000Y-72750000D01*
X114630000Y-72750000D02*
X114630000Y-73750000D01*
X52020000Y-73750000D02*
X52020000Y-72750000D01*
X53380000Y-72750000D02*
X53380000Y-73750000D01*
X92370000Y-73550000D02*
X92370000Y-72550000D01*
X93730000Y-72550000D02*
X93730000Y-73550000D01*
X63380000Y-63750000D02*
X63380000Y-64750000D01*
X62020000Y-64750000D02*
X62020000Y-63750000D01*
X104630000Y-63750000D02*
X104630000Y-64750000D01*
X103270000Y-64750000D02*
X103270000Y-63750000D01*
X43980000Y-63750000D02*
X43980000Y-64750000D01*
X42620000Y-64750000D02*
X42620000Y-63750000D01*
X83730000Y-63550000D02*
X83730000Y-64550000D01*
X82370000Y-64550000D02*
X82370000Y-63550000D01*
X72020000Y-64750000D02*
X72020000Y-63750000D01*
X73380000Y-63750000D02*
X73380000Y-64750000D01*
X113270000Y-64750000D02*
X113270000Y-63750000D01*
X114630000Y-63750000D02*
X114630000Y-64750000D01*
X52020000Y-64750000D02*
X52020000Y-63750000D01*
X53380000Y-63750000D02*
X53380000Y-64750000D01*
X92370000Y-64550000D02*
X92370000Y-63550000D01*
X93730000Y-63550000D02*
X93730000Y-64550000D01*
X63380000Y-55000000D02*
X63380000Y-56000000D01*
X62020000Y-56000000D02*
X62020000Y-55000000D01*
X104630000Y-55250000D02*
X104630000Y-56250000D01*
X103270000Y-56250000D02*
X103270000Y-55250000D01*
X43980000Y-55000000D02*
X43980000Y-56000000D01*
X42620000Y-56000000D02*
X42620000Y-55000000D01*
X83730000Y-55050000D02*
X83730000Y-56050000D01*
X82370000Y-56050000D02*
X82370000Y-55050000D01*
X72020000Y-56000000D02*
X72020000Y-55000000D01*
X73380000Y-55000000D02*
X73380000Y-56000000D01*
X113270000Y-56250000D02*
X113270000Y-55250000D01*
X114630000Y-55250000D02*
X114630000Y-56250000D01*
X52020000Y-56000000D02*
X52020000Y-55000000D01*
X53380000Y-55000000D02*
X53380000Y-56000000D01*
X92370000Y-56050000D02*
X92370000Y-55050000D01*
X93730000Y-55050000D02*
X93730000Y-56050000D01*
X63380000Y-46250000D02*
X63380000Y-47250000D01*
X62020000Y-47250000D02*
X62020000Y-46250000D01*
X104630000Y-46500000D02*
X104630000Y-47500000D01*
X103270000Y-47500000D02*
X103270000Y-46500000D01*
X43980000Y-46500000D02*
X43980000Y-47500000D01*
X42620000Y-47500000D02*
X42620000Y-46500000D01*
X83730000Y-46300000D02*
X83730000Y-47300000D01*
X82370000Y-47300000D02*
X82370000Y-46300000D01*
X72020000Y-47250000D02*
X72020000Y-46250000D01*
X73380000Y-46250000D02*
X73380000Y-47250000D01*
X113270000Y-47500000D02*
X113270000Y-46500000D01*
X114630000Y-46500000D02*
X114630000Y-47500000D01*
X52020000Y-47500000D02*
X52020000Y-46500000D01*
X53380000Y-46500000D02*
X53380000Y-47500000D01*
X92370000Y-47300000D02*
X92370000Y-46300000D01*
X93730000Y-46300000D02*
X93730000Y-47300000D01*
X40660000Y-100460000D02*
X40660000Y-99200000D01*
X40660000Y-93640000D02*
X40660000Y-94900000D01*
X36900000Y-100460000D02*
X40660000Y-100460000D01*
X34650000Y-93640000D02*
X40660000Y-93640000D01*
D13*
X26978000Y-72644000D02*
X36122000Y-72644000D01*
X36122000Y-72644000D02*
X36122000Y-88392000D01*
X26978000Y-88392000D02*
X26978000Y-72644000D01*
X26978000Y-88392000D02*
X36122000Y-88392000D01*
X54833000Y-99013000D02*
X54833000Y-81360000D01*
X60167000Y-81360000D02*
X60167000Y-99140000D01*
X54833000Y-99140000D02*
X60167000Y-99140000D01*
X60167000Y-81360000D02*
X54833000Y-81360000D01*
X58135000Y-81360000D02*
X58135000Y-82630000D01*
X58135000Y-82630000D02*
X56865000Y-82630000D01*
X56865000Y-82630000D02*
X56865000Y-81360000D01*
X95333000Y-99013000D02*
X95333000Y-81360000D01*
X100667000Y-81360000D02*
X100667000Y-99140000D01*
X95333000Y-99140000D02*
X100667000Y-99140000D01*
X100667000Y-81360000D02*
X95333000Y-81360000D01*
X98635000Y-81360000D02*
X98635000Y-82630000D01*
X98635000Y-82630000D02*
X97365000Y-82630000D01*
X97365000Y-82630000D02*
X97365000Y-81360000D01*
D12*
X66800000Y-74210000D02*
X68600000Y-74210000D01*
X68600000Y-70990000D02*
X65650000Y-70990000D01*
X108050000Y-74610000D02*
X109850000Y-74610000D01*
X109850000Y-71390000D02*
X106900000Y-71390000D01*
X46800000Y-74610000D02*
X48600000Y-74610000D01*
X48600000Y-71390000D02*
X45650000Y-71390000D01*
X87150000Y-74410000D02*
X88950000Y-74410000D01*
X88950000Y-71190000D02*
X86000000Y-71190000D01*
X66800000Y-65610000D02*
X68600000Y-65610000D01*
X68600000Y-62390000D02*
X65650000Y-62390000D01*
X108050000Y-65610000D02*
X109850000Y-65610000D01*
X109850000Y-62390000D02*
X106900000Y-62390000D01*
X46800000Y-65610000D02*
X48600000Y-65610000D01*
X48600000Y-62390000D02*
X45650000Y-62390000D01*
X87150000Y-65410000D02*
X88950000Y-65410000D01*
X88950000Y-62190000D02*
X86000000Y-62190000D01*
X66800000Y-56860000D02*
X68600000Y-56860000D01*
X68600000Y-53640000D02*
X65650000Y-53640000D01*
X108050000Y-57110000D02*
X109850000Y-57110000D01*
X109850000Y-53890000D02*
X106900000Y-53890000D01*
X46800000Y-56860000D02*
X48600000Y-56860000D01*
X48600000Y-53640000D02*
X45650000Y-53640000D01*
X87150000Y-56910000D02*
X88950000Y-56910000D01*
X88950000Y-53690000D02*
X86000000Y-53690000D01*
X66800000Y-48160000D02*
X68600000Y-48160000D01*
X68600000Y-44940000D02*
X65650000Y-44940000D01*
X108050000Y-48360000D02*
X109850000Y-48360000D01*
X109850000Y-45140000D02*
X106900000Y-45140000D01*
X46800000Y-48360000D02*
X48600000Y-48360000D01*
X48600000Y-45140000D02*
X45650000Y-45140000D01*
X87150000Y-48160000D02*
X88950000Y-48160000D01*
X88950000Y-44940000D02*
X86000000Y-44940000D01*
X65120000Y-39990000D02*
X70320000Y-39990000D01*
X65120000Y-29770000D02*
X65120000Y-39990000D01*
X70320000Y-27170000D02*
X70320000Y-39990000D01*
X65120000Y-29770000D02*
X67720000Y-29770000D01*
X67720000Y-29770000D02*
X67720000Y-27170000D01*
X67720000Y-27170000D02*
X70320000Y-27170000D01*
X65120000Y-28500000D02*
X65120000Y-27170000D01*
X65120000Y-27170000D02*
X66450000Y-27170000D01*
X45120000Y-39990000D02*
X50320000Y-39990000D01*
X45120000Y-29770000D02*
X45120000Y-39990000D01*
X50320000Y-27170000D02*
X50320000Y-39990000D01*
X45120000Y-29770000D02*
X47720000Y-29770000D01*
X47720000Y-29770000D02*
X47720000Y-27170000D01*
X47720000Y-27170000D02*
X50320000Y-27170000D01*
X45120000Y-28500000D02*
X45120000Y-27170000D01*
X45120000Y-27170000D02*
X46450000Y-27170000D01*
X106370000Y-39990000D02*
X111570000Y-39990000D01*
X106370000Y-29770000D02*
X106370000Y-39990000D01*
X111570000Y-27170000D02*
X111570000Y-39990000D01*
X106370000Y-29770000D02*
X108970000Y-29770000D01*
X108970000Y-29770000D02*
X108970000Y-27170000D01*
X108970000Y-27170000D02*
X111570000Y-27170000D01*
X106370000Y-28500000D02*
X106370000Y-27170000D01*
X106370000Y-27170000D02*
X107700000Y-27170000D01*
X85470000Y-39790000D02*
X90670000Y-39790000D01*
X85470000Y-29570000D02*
X85470000Y-39790000D01*
X90670000Y-26970000D02*
X90670000Y-39790000D01*
X85470000Y-29570000D02*
X88070000Y-29570000D01*
X88070000Y-29570000D02*
X88070000Y-26970000D01*
X88070000Y-26970000D02*
X90670000Y-26970000D01*
X85470000Y-28300000D02*
X85470000Y-26970000D01*
X85470000Y-26970000D02*
X86800000Y-26970000D01*
X26320000Y-115930000D02*
X35680000Y-115930000D01*
X35680000Y-115930000D02*
X35680000Y-107370000D01*
X35680000Y-107370000D02*
X26320000Y-107370000D01*
X26320000Y-115930000D02*
X26320000Y-114450000D01*
X26320000Y-107370000D02*
X26320000Y-108850000D01*
X26320000Y-112350000D02*
X26320000Y-110950000D01*
X32400000Y-115930000D02*
X32400000Y-107370000D01*
X25000000Y-113100000D02*
X25600000Y-113400000D01*
X25600000Y-113400000D02*
X25000000Y-113700000D01*
X25000000Y-113700000D02*
X25000000Y-113100000D01*
X122530000Y-99470000D02*
X113170000Y-99470000D01*
X113170000Y-99470000D02*
X113170000Y-115030000D01*
X113170000Y-115030000D02*
X122530000Y-115030000D01*
X122530000Y-99470000D02*
X122530000Y-100950000D01*
X122530000Y-115030000D02*
X122530000Y-113550000D01*
X122530000Y-103050000D02*
X122530000Y-104450000D01*
X122530000Y-106550000D02*
X122530000Y-107950000D01*
X122530000Y-110050000D02*
X122530000Y-111450000D01*
X116450000Y-99470000D02*
X116450000Y-115030000D01*
X123850000Y-102300000D02*
X123250000Y-102000000D01*
X123250000Y-102000000D02*
X123850000Y-101700000D01*
X123850000Y-101700000D02*
X123850000Y-102300000D01*
X122530000Y-84220000D02*
X113170000Y-84220000D01*
X113170000Y-84220000D02*
X113170000Y-92780000D01*
X113170000Y-92780000D02*
X122530000Y-92780000D01*
X122530000Y-84220000D02*
X122530000Y-85700000D01*
X122530000Y-92780000D02*
X122530000Y-91300000D01*
X122530000Y-87800000D02*
X122530000Y-89200000D01*
X116450000Y-84220000D02*
X116450000Y-92780000D01*
X123850000Y-87050000D02*
X123250000Y-86750000D01*
X123250000Y-86750000D02*
X123850000Y-86450000D01*
X123850000Y-86450000D02*
X123850000Y-87050000D01*
X70400000Y-124350000D02*
X67200000Y-124350000D01*
X67200000Y-122850000D02*
X70400000Y-122850000D01*
X67200000Y-122850000D02*
X67200000Y-124350000D01*
X59640000Y-117220000D02*
X59640000Y-118150000D01*
X59640000Y-120380000D02*
X59640000Y-119450000D01*
X59640000Y-120380000D02*
X62800000Y-120380000D01*
X59640000Y-117220000D02*
X61100000Y-117220000D01*
X62300000Y-122920000D02*
X63300000Y-122920000D01*
X63300000Y-124280000D02*
X62300000Y-124280000D01*
D13*
X82058095Y-76972381D02*
X82058095Y-77781905D01*
X82105714Y-77877143D01*
X82153333Y-77924762D01*
X82248571Y-77972381D01*
X82439048Y-77972381D01*
X82534286Y-77924762D01*
X82581905Y-77877143D01*
X82629524Y-77781905D01*
X82629524Y-76972381D01*
X83058095Y-77067619D02*
X83105714Y-77020000D01*
X83200952Y-76972381D01*
X83439048Y-76972381D01*
X83534286Y-77020000D01*
X83581905Y-77067619D01*
X83629524Y-77162857D01*
X83629524Y-77258095D01*
X83581905Y-77400952D01*
X83010476Y-77972381D01*
X83629524Y-77972381D01*
X58071905Y-107472381D02*
X58071905Y-108281905D01*
X58119524Y-108377143D01*
X58167143Y-108424762D01*
X58262381Y-108472381D01*
X58452858Y-108472381D01*
X58548096Y-108424762D01*
X58595715Y-108377143D01*
X58643334Y-108281905D01*
X58643334Y-107472381D01*
X59071905Y-107567619D02*
X59119524Y-107520000D01*
X59214762Y-107472381D01*
X59452858Y-107472381D01*
X59548096Y-107520000D01*
X59595715Y-107567619D01*
X59643334Y-107662857D01*
X59643334Y-107758095D01*
X59595715Y-107900952D01*
X59024286Y-108472381D01*
X59643334Y-108472381D01*
X60024286Y-107567619D02*
X60071905Y-107520000D01*
X60167143Y-107472381D01*
X60405239Y-107472381D01*
X60500477Y-107520000D01*
X60548096Y-107567619D01*
X60595715Y-107662857D01*
X60595715Y-107758095D01*
X60548096Y-107900952D01*
X59976667Y-108472381D01*
X60595715Y-108472381D01*
X28033334Y-95757143D02*
X27985715Y-95804762D01*
X27842858Y-95852381D01*
X27747620Y-95852381D01*
X27604762Y-95804762D01*
X27509524Y-95709524D01*
X27461905Y-95614286D01*
X27414286Y-95423810D01*
X27414286Y-95280952D01*
X27461905Y-95090476D01*
X27509524Y-94995238D01*
X27604762Y-94900000D01*
X27747620Y-94852381D01*
X27842858Y-94852381D01*
X27985715Y-94900000D01*
X28033334Y-94947619D01*
X28985715Y-95852381D02*
X28414286Y-95852381D01*
X28700000Y-95852381D02*
X28700000Y-94852381D01*
X28604762Y-94995238D01*
X28509524Y-95090476D01*
X28414286Y-95138095D01*
X47907143Y-97166666D02*
X47954762Y-97214285D01*
X48002381Y-97357142D01*
X48002381Y-97452380D01*
X47954762Y-97595238D01*
X47859524Y-97690476D01*
X47764286Y-97738095D01*
X47573810Y-97785714D01*
X47430952Y-97785714D01*
X47240476Y-97738095D01*
X47145238Y-97690476D01*
X47050000Y-97595238D01*
X47002381Y-97452380D01*
X47002381Y-97357142D01*
X47050000Y-97214285D01*
X47097619Y-97166666D01*
X47097619Y-96785714D02*
X47050000Y-96738095D01*
X47002381Y-96642857D01*
X47002381Y-96404761D01*
X47050000Y-96309523D01*
X47097619Y-96261904D01*
X47192857Y-96214285D01*
X47288095Y-96214285D01*
X47430952Y-96261904D01*
X48002381Y-96833333D01*
X48002381Y-96214285D01*
X122033334Y-80057143D02*
X121985715Y-80104762D01*
X121842858Y-80152381D01*
X121747620Y-80152381D01*
X121604762Y-80104762D01*
X121509524Y-80009524D01*
X121461905Y-79914286D01*
X121414286Y-79723810D01*
X121414286Y-79580952D01*
X121461905Y-79390476D01*
X121509524Y-79295238D01*
X121604762Y-79200000D01*
X121747620Y-79152381D01*
X121842858Y-79152381D01*
X121985715Y-79200000D01*
X122033334Y-79247619D01*
X122366667Y-79152381D02*
X122985715Y-79152381D01*
X122652381Y-79533333D01*
X122795239Y-79533333D01*
X122890477Y-79580952D01*
X122938096Y-79628571D01*
X122985715Y-79723810D01*
X122985715Y-79961905D01*
X122938096Y-80057143D01*
X122890477Y-80104762D01*
X122795239Y-80152381D01*
X122509524Y-80152381D01*
X122414286Y-80104762D01*
X122366667Y-80057143D01*
X27761905Y-106352381D02*
X27761905Y-105352381D01*
X28000000Y-105352381D01*
X28142858Y-105400000D01*
X28238096Y-105495238D01*
X28285715Y-105590476D01*
X28333334Y-105780952D01*
X28333334Y-105923810D01*
X28285715Y-106114286D01*
X28238096Y-106209524D01*
X28142858Y-106304762D01*
X28000000Y-106352381D01*
X27761905Y-106352381D01*
X29285715Y-106352381D02*
X28714286Y-106352381D01*
X29000000Y-106352381D02*
X29000000Y-105352381D01*
X28904762Y-105495238D01*
X28809524Y-105590476D01*
X28714286Y-105638095D01*
X63961905Y-95552381D02*
X63961905Y-94552381D01*
X64200000Y-94552381D01*
X64342858Y-94600000D01*
X64438096Y-94695238D01*
X64485715Y-94790476D01*
X64533334Y-94980952D01*
X64533334Y-95123810D01*
X64485715Y-95314286D01*
X64438096Y-95409524D01*
X64342858Y-95504762D01*
X64200000Y-95552381D01*
X63961905Y-95552381D01*
X64914286Y-94647619D02*
X64961905Y-94600000D01*
X65057143Y-94552381D01*
X65295239Y-94552381D01*
X65390477Y-94600000D01*
X65438096Y-94647619D01*
X65485715Y-94742857D01*
X65485715Y-94838095D01*
X65438096Y-94980952D01*
X64866667Y-95552381D01*
X65485715Y-95552381D01*
X38404762Y-87747619D02*
X38309524Y-87700000D01*
X38214286Y-87604762D01*
X38071429Y-87461905D01*
X37976190Y-87414286D01*
X37880952Y-87414286D01*
X37928571Y-87652381D02*
X37833333Y-87604762D01*
X37738095Y-87509524D01*
X37690476Y-87319048D01*
X37690476Y-86985714D01*
X37738095Y-86795238D01*
X37833333Y-86700000D01*
X37928571Y-86652381D01*
X38119048Y-86652381D01*
X38214286Y-86700000D01*
X38309524Y-86795238D01*
X38357143Y-86985714D01*
X38357143Y-87319048D01*
X38309524Y-87509524D01*
X38214286Y-87604762D01*
X38119048Y-87652381D01*
X37928571Y-87652381D01*
X39309524Y-87652381D02*
X38738095Y-87652381D01*
X39023809Y-87652381D02*
X39023809Y-86652381D01*
X38928571Y-86795238D01*
X38833333Y-86890476D01*
X38738095Y-86938095D01*
X93804762Y-115847619D02*
X93709524Y-115800000D01*
X93614286Y-115704762D01*
X93471429Y-115561905D01*
X93376190Y-115514286D01*
X93280952Y-115514286D01*
X93328571Y-115752381D02*
X93233333Y-115704762D01*
X93138095Y-115609524D01*
X93090476Y-115419048D01*
X93090476Y-115085714D01*
X93138095Y-114895238D01*
X93233333Y-114800000D01*
X93328571Y-114752381D01*
X93519048Y-114752381D01*
X93614286Y-114800000D01*
X93709524Y-114895238D01*
X93757143Y-115085714D01*
X93757143Y-115419048D01*
X93709524Y-115609524D01*
X93614286Y-115704762D01*
X93519048Y-115752381D01*
X93328571Y-115752381D01*
X94138095Y-114847619D02*
X94185714Y-114800000D01*
X94280952Y-114752381D01*
X94519048Y-114752381D01*
X94614286Y-114800000D01*
X94661905Y-114847619D01*
X94709524Y-114942857D01*
X94709524Y-115038095D01*
X94661905Y-115180952D01*
X94090476Y-115752381D01*
X94709524Y-115752381D01*
X99804762Y-115847619D02*
X99709524Y-115800000D01*
X99614286Y-115704762D01*
X99471429Y-115561905D01*
X99376190Y-115514286D01*
X99280952Y-115514286D01*
X99328571Y-115752381D02*
X99233333Y-115704762D01*
X99138095Y-115609524D01*
X99090476Y-115419048D01*
X99090476Y-115085714D01*
X99138095Y-114895238D01*
X99233333Y-114800000D01*
X99328571Y-114752381D01*
X99519048Y-114752381D01*
X99614286Y-114800000D01*
X99709524Y-114895238D01*
X99757143Y-115085714D01*
X99757143Y-115419048D01*
X99709524Y-115609524D01*
X99614286Y-115704762D01*
X99519048Y-115752381D01*
X99328571Y-115752381D01*
X100090476Y-114752381D02*
X100709524Y-114752381D01*
X100376190Y-115133333D01*
X100519048Y-115133333D01*
X100614286Y-115180952D01*
X100661905Y-115228571D01*
X100709524Y-115323810D01*
X100709524Y-115561905D01*
X100661905Y-115657143D01*
X100614286Y-115704762D01*
X100519048Y-115752381D01*
X100233333Y-115752381D01*
X100138095Y-115704762D01*
X100090476Y-115657143D01*
X106004762Y-115847619D02*
X105909524Y-115800000D01*
X105814286Y-115704762D01*
X105671429Y-115561905D01*
X105576190Y-115514286D01*
X105480952Y-115514286D01*
X105528571Y-115752381D02*
X105433333Y-115704762D01*
X105338095Y-115609524D01*
X105290476Y-115419048D01*
X105290476Y-115085714D01*
X105338095Y-114895238D01*
X105433333Y-114800000D01*
X105528571Y-114752381D01*
X105719048Y-114752381D01*
X105814286Y-114800000D01*
X105909524Y-114895238D01*
X105957143Y-115085714D01*
X105957143Y-115419048D01*
X105909524Y-115609524D01*
X105814286Y-115704762D01*
X105719048Y-115752381D01*
X105528571Y-115752381D01*
X106814286Y-115085714D02*
X106814286Y-115752381D01*
X106576190Y-114704762D02*
X106338095Y-115419048D01*
X106957143Y-115419048D01*
X111404762Y-115747619D02*
X111309524Y-115700000D01*
X111214286Y-115604762D01*
X111071429Y-115461905D01*
X110976190Y-115414286D01*
X110880952Y-115414286D01*
X110928571Y-115652381D02*
X110833333Y-115604762D01*
X110738095Y-115509524D01*
X110690476Y-115319048D01*
X110690476Y-114985714D01*
X110738095Y-114795238D01*
X110833333Y-114700000D01*
X110928571Y-114652381D01*
X111119048Y-114652381D01*
X111214286Y-114700000D01*
X111309524Y-114795238D01*
X111357143Y-114985714D01*
X111357143Y-115319048D01*
X111309524Y-115509524D01*
X111214286Y-115604762D01*
X111119048Y-115652381D01*
X110928571Y-115652381D01*
X112261905Y-114652381D02*
X111785714Y-114652381D01*
X111738095Y-115128571D01*
X111785714Y-115080952D01*
X111880952Y-115033333D01*
X112119048Y-115033333D01*
X112214286Y-115080952D01*
X112261905Y-115128571D01*
X112309524Y-115223810D01*
X112309524Y-115461905D01*
X112261905Y-115557143D01*
X112214286Y-115604762D01*
X112119048Y-115652381D01*
X111880952Y-115652381D01*
X111785714Y-115604762D01*
X111738095Y-115557143D01*
X27883334Y-100102381D02*
X27550000Y-99626190D01*
X27311905Y-100102381D02*
X27311905Y-99102381D01*
X27692858Y-99102381D01*
X27788096Y-99150000D01*
X27835715Y-99197619D01*
X27883334Y-99292857D01*
X27883334Y-99435714D01*
X27835715Y-99530952D01*
X27788096Y-99578571D01*
X27692858Y-99626190D01*
X27311905Y-99626190D01*
X28835715Y-100102381D02*
X28264286Y-100102381D01*
X28550000Y-100102381D02*
X28550000Y-99102381D01*
X28454762Y-99245238D01*
X28359524Y-99340476D01*
X28264286Y-99388095D01*
X67783334Y-91102381D02*
X67450000Y-90626190D01*
X67211905Y-91102381D02*
X67211905Y-90102381D01*
X67592858Y-90102381D01*
X67688096Y-90150000D01*
X67735715Y-90197619D01*
X67783334Y-90292857D01*
X67783334Y-90435714D01*
X67735715Y-90530952D01*
X67688096Y-90578571D01*
X67592858Y-90626190D01*
X67211905Y-90626190D01*
X68164286Y-90197619D02*
X68211905Y-90150000D01*
X68307143Y-90102381D01*
X68545239Y-90102381D01*
X68640477Y-90150000D01*
X68688096Y-90197619D01*
X68735715Y-90292857D01*
X68735715Y-90388095D01*
X68688096Y-90530952D01*
X68116667Y-91102381D01*
X68735715Y-91102381D01*
X116133334Y-80452381D02*
X115800000Y-79976190D01*
X115561905Y-80452381D02*
X115561905Y-79452381D01*
X115942858Y-79452381D01*
X116038096Y-79500000D01*
X116085715Y-79547619D01*
X116133334Y-79642857D01*
X116133334Y-79785714D01*
X116085715Y-79880952D01*
X116038096Y-79928571D01*
X115942858Y-79976190D01*
X115561905Y-79976190D01*
X116466667Y-79452381D02*
X117085715Y-79452381D01*
X116752381Y-79833333D01*
X116895239Y-79833333D01*
X116990477Y-79880952D01*
X117038096Y-79928571D01*
X117085715Y-80023810D01*
X117085715Y-80261905D01*
X117038096Y-80357143D01*
X116990477Y-80404762D01*
X116895239Y-80452381D01*
X116609524Y-80452381D01*
X116514286Y-80404762D01*
X116466667Y-80357143D01*
X100883334Y-101652381D02*
X100550000Y-101176190D01*
X100311905Y-101652381D02*
X100311905Y-100652381D01*
X100692858Y-100652381D01*
X100788096Y-100700000D01*
X100835715Y-100747619D01*
X100883334Y-100842857D01*
X100883334Y-100985714D01*
X100835715Y-101080952D01*
X100788096Y-101128571D01*
X100692858Y-101176190D01*
X100311905Y-101176190D01*
X101740477Y-100985714D02*
X101740477Y-101652381D01*
X101502381Y-100604762D02*
X101264286Y-101319048D01*
X101883334Y-101319048D01*
X100883334Y-103652381D02*
X100550000Y-103176190D01*
X100311905Y-103652381D02*
X100311905Y-102652381D01*
X100692858Y-102652381D01*
X100788096Y-102700000D01*
X100835715Y-102747619D01*
X100883334Y-102842857D01*
X100883334Y-102985714D01*
X100835715Y-103080952D01*
X100788096Y-103128571D01*
X100692858Y-103176190D01*
X100311905Y-103176190D01*
X101788096Y-102652381D02*
X101311905Y-102652381D01*
X101264286Y-103128571D01*
X101311905Y-103080952D01*
X101407143Y-103033333D01*
X101645239Y-103033333D01*
X101740477Y-103080952D01*
X101788096Y-103128571D01*
X101835715Y-103223810D01*
X101835715Y-103461905D01*
X101788096Y-103557143D01*
X101740477Y-103604762D01*
X101645239Y-103652381D01*
X101407143Y-103652381D01*
X101311905Y-103604762D01*
X101264286Y-103557143D01*
X100502381Y-108666666D02*
X100026190Y-109000000D01*
X100502381Y-109238095D02*
X99502381Y-109238095D01*
X99502381Y-108857142D01*
X99550000Y-108761904D01*
X99597619Y-108714285D01*
X99692857Y-108666666D01*
X99835714Y-108666666D01*
X99930952Y-108714285D01*
X99978571Y-108761904D01*
X100026190Y-108857142D01*
X100026190Y-109238095D01*
X99502381Y-107809523D02*
X99502381Y-108000000D01*
X99550000Y-108095238D01*
X99597619Y-108142857D01*
X99740476Y-108238095D01*
X99930952Y-108285714D01*
X100311905Y-108285714D01*
X100407143Y-108238095D01*
X100454762Y-108190476D01*
X100502381Y-108095238D01*
X100502381Y-107904761D01*
X100454762Y-107809523D01*
X100407143Y-107761904D01*
X100311905Y-107714285D01*
X100073810Y-107714285D01*
X99978571Y-107761904D01*
X99930952Y-107809523D01*
X99883333Y-107904761D01*
X99883333Y-108095238D01*
X99930952Y-108190476D01*
X99978571Y-108238095D01*
X100073810Y-108285714D01*
X103252381Y-108666666D02*
X102776190Y-109000000D01*
X103252381Y-109238095D02*
X102252381Y-109238095D01*
X102252381Y-108857142D01*
X102300000Y-108761904D01*
X102347619Y-108714285D01*
X102442857Y-108666666D01*
X102585714Y-108666666D01*
X102680952Y-108714285D01*
X102728571Y-108761904D01*
X102776190Y-108857142D01*
X102776190Y-109238095D01*
X102252381Y-108333333D02*
X102252381Y-107666666D01*
X103252381Y-108095238D01*
X106002381Y-108666666D02*
X105526190Y-109000000D01*
X106002381Y-109238095D02*
X105002381Y-109238095D01*
X105002381Y-108857142D01*
X105050000Y-108761904D01*
X105097619Y-108714285D01*
X105192857Y-108666666D01*
X105335714Y-108666666D01*
X105430952Y-108714285D01*
X105478571Y-108761904D01*
X105526190Y-108857142D01*
X105526190Y-109238095D01*
X105430952Y-108095238D02*
X105383333Y-108190476D01*
X105335714Y-108238095D01*
X105240476Y-108285714D01*
X105192857Y-108285714D01*
X105097619Y-108238095D01*
X105050000Y-108190476D01*
X105002381Y-108095238D01*
X105002381Y-107904761D01*
X105050000Y-107809523D01*
X105097619Y-107761904D01*
X105192857Y-107714285D01*
X105240476Y-107714285D01*
X105335714Y-107761904D01*
X105383333Y-107809523D01*
X105430952Y-107904761D01*
X105430952Y-108095238D01*
X105478571Y-108190476D01*
X105526190Y-108238095D01*
X105621429Y-108285714D01*
X105811905Y-108285714D01*
X105907143Y-108238095D01*
X105954762Y-108190476D01*
X106002381Y-108095238D01*
X106002381Y-107904761D01*
X105954762Y-107809523D01*
X105907143Y-107761904D01*
X105811905Y-107714285D01*
X105621429Y-107714285D01*
X105526190Y-107761904D01*
X105478571Y-107809523D01*
X105430952Y-107904761D01*
X108752381Y-108666666D02*
X108276190Y-109000000D01*
X108752381Y-109238095D02*
X107752381Y-109238095D01*
X107752381Y-108857142D01*
X107800000Y-108761904D01*
X107847619Y-108714285D01*
X107942857Y-108666666D01*
X108085714Y-108666666D01*
X108180952Y-108714285D01*
X108228571Y-108761904D01*
X108276190Y-108857142D01*
X108276190Y-109238095D01*
X108752381Y-108190476D02*
X108752381Y-108000000D01*
X108704762Y-107904761D01*
X108657143Y-107857142D01*
X108514286Y-107761904D01*
X108323810Y-107714285D01*
X107942857Y-107714285D01*
X107847619Y-107761904D01*
X107800000Y-107809523D01*
X107752381Y-107904761D01*
X107752381Y-108095238D01*
X107800000Y-108190476D01*
X107847619Y-108238095D01*
X107942857Y-108285714D01*
X108180952Y-108285714D01*
X108276190Y-108238095D01*
X108323810Y-108190476D01*
X108371429Y-108095238D01*
X108371429Y-107904761D01*
X108323810Y-107809523D01*
X108276190Y-107761904D01*
X108180952Y-107714285D01*
X61702381Y-73392857D02*
X61226190Y-73726191D01*
X61702381Y-73964286D02*
X60702381Y-73964286D01*
X60702381Y-73583333D01*
X60750000Y-73488095D01*
X60797619Y-73440476D01*
X60892857Y-73392857D01*
X61035714Y-73392857D01*
X61130952Y-73440476D01*
X61178571Y-73488095D01*
X61226190Y-73583333D01*
X61226190Y-73964286D01*
X61702381Y-72440476D02*
X61702381Y-73011905D01*
X61702381Y-72726191D02*
X60702381Y-72726191D01*
X60845238Y-72821429D01*
X60940476Y-72916667D01*
X60988095Y-73011905D01*
X60702381Y-71821429D02*
X60702381Y-71726190D01*
X60750000Y-71630952D01*
X60797619Y-71583333D01*
X60892857Y-71535714D01*
X61083333Y-71488095D01*
X61321429Y-71488095D01*
X61511905Y-71535714D01*
X61607143Y-71583333D01*
X61654762Y-71630952D01*
X61702381Y-71726190D01*
X61702381Y-71821429D01*
X61654762Y-71916667D01*
X61607143Y-71964286D01*
X61511905Y-72011905D01*
X61321429Y-72059524D01*
X61083333Y-72059524D01*
X60892857Y-72011905D01*
X60797619Y-71964286D01*
X60750000Y-71916667D01*
X60702381Y-71821429D01*
X102952381Y-73892857D02*
X102476190Y-74226191D01*
X102952381Y-74464286D02*
X101952381Y-74464286D01*
X101952381Y-74083333D01*
X102000000Y-73988095D01*
X102047619Y-73940476D01*
X102142857Y-73892857D01*
X102285714Y-73892857D01*
X102380952Y-73940476D01*
X102428571Y-73988095D01*
X102476190Y-74083333D01*
X102476190Y-74464286D01*
X102952381Y-72940476D02*
X102952381Y-73511905D01*
X102952381Y-73226191D02*
X101952381Y-73226191D01*
X102095238Y-73321429D01*
X102190476Y-73416667D01*
X102238095Y-73511905D01*
X102952381Y-71988095D02*
X102952381Y-72559524D01*
X102952381Y-72273810D02*
X101952381Y-72273810D01*
X102095238Y-72369048D01*
X102190476Y-72464286D01*
X102238095Y-72559524D01*
X42302381Y-73892857D02*
X41826190Y-74226191D01*
X42302381Y-74464286D02*
X41302381Y-74464286D01*
X41302381Y-74083333D01*
X41350000Y-73988095D01*
X41397619Y-73940476D01*
X41492857Y-73892857D01*
X41635714Y-73892857D01*
X41730952Y-73940476D01*
X41778571Y-73988095D01*
X41826190Y-74083333D01*
X41826190Y-74464286D01*
X42302381Y-72940476D02*
X42302381Y-73511905D01*
X42302381Y-73226191D02*
X41302381Y-73226191D01*
X41445238Y-73321429D01*
X41540476Y-73416667D01*
X41588095Y-73511905D01*
X41397619Y-72559524D02*
X41350000Y-72511905D01*
X41302381Y-72416667D01*
X41302381Y-72178571D01*
X41350000Y-72083333D01*
X41397619Y-72035714D01*
X41492857Y-71988095D01*
X41588095Y-71988095D01*
X41730952Y-72035714D01*
X42302381Y-72607143D01*
X42302381Y-71988095D01*
X82052381Y-73692857D02*
X81576190Y-74026191D01*
X82052381Y-74264286D02*
X81052381Y-74264286D01*
X81052381Y-73883333D01*
X81100000Y-73788095D01*
X81147619Y-73740476D01*
X81242857Y-73692857D01*
X81385714Y-73692857D01*
X81480952Y-73740476D01*
X81528571Y-73788095D01*
X81576190Y-73883333D01*
X81576190Y-74264286D01*
X82052381Y-72740476D02*
X82052381Y-73311905D01*
X82052381Y-73026191D02*
X81052381Y-73026191D01*
X81195238Y-73121429D01*
X81290476Y-73216667D01*
X81338095Y-73311905D01*
X81052381Y-72407143D02*
X81052381Y-71788095D01*
X81433333Y-72121429D01*
X81433333Y-71978571D01*
X81480952Y-71883333D01*
X81528571Y-71835714D01*
X81623810Y-71788095D01*
X81861905Y-71788095D01*
X81957143Y-71835714D01*
X82004762Y-71883333D01*
X82052381Y-71978571D01*
X82052381Y-72264286D01*
X82004762Y-72359524D01*
X81957143Y-72407143D01*
X74602381Y-73392857D02*
X74126190Y-73726191D01*
X74602381Y-73964286D02*
X73602381Y-73964286D01*
X73602381Y-73583333D01*
X73650000Y-73488095D01*
X73697619Y-73440476D01*
X73792857Y-73392857D01*
X73935714Y-73392857D01*
X74030952Y-73440476D01*
X74078571Y-73488095D01*
X74126190Y-73583333D01*
X74126190Y-73964286D01*
X74602381Y-72440476D02*
X74602381Y-73011905D01*
X74602381Y-72726191D02*
X73602381Y-72726191D01*
X73745238Y-72821429D01*
X73840476Y-72916667D01*
X73888095Y-73011905D01*
X73935714Y-71583333D02*
X74602381Y-71583333D01*
X73554762Y-71821429D02*
X74269048Y-72059524D01*
X74269048Y-71440476D01*
X115852381Y-73892857D02*
X115376190Y-74226191D01*
X115852381Y-74464286D02*
X114852381Y-74464286D01*
X114852381Y-74083333D01*
X114900000Y-73988095D01*
X114947619Y-73940476D01*
X115042857Y-73892857D01*
X115185714Y-73892857D01*
X115280952Y-73940476D01*
X115328571Y-73988095D01*
X115376190Y-74083333D01*
X115376190Y-74464286D01*
X115852381Y-72940476D02*
X115852381Y-73511905D01*
X115852381Y-73226191D02*
X114852381Y-73226191D01*
X114995238Y-73321429D01*
X115090476Y-73416667D01*
X115138095Y-73511905D01*
X114852381Y-72035714D02*
X114852381Y-72511905D01*
X115328571Y-72559524D01*
X115280952Y-72511905D01*
X115233333Y-72416667D01*
X115233333Y-72178571D01*
X115280952Y-72083333D01*
X115328571Y-72035714D01*
X115423810Y-71988095D01*
X115661905Y-71988095D01*
X115757143Y-72035714D01*
X115804762Y-72083333D01*
X115852381Y-72178571D01*
X115852381Y-72416667D01*
X115804762Y-72511905D01*
X115757143Y-72559524D01*
X54602381Y-73892857D02*
X54126190Y-74226191D01*
X54602381Y-74464286D02*
X53602381Y-74464286D01*
X53602381Y-74083333D01*
X53650000Y-73988095D01*
X53697619Y-73940476D01*
X53792857Y-73892857D01*
X53935714Y-73892857D01*
X54030952Y-73940476D01*
X54078571Y-73988095D01*
X54126190Y-74083333D01*
X54126190Y-74464286D01*
X54602381Y-72940476D02*
X54602381Y-73511905D01*
X54602381Y-73226191D02*
X53602381Y-73226191D01*
X53745238Y-73321429D01*
X53840476Y-73416667D01*
X53888095Y-73511905D01*
X53602381Y-72083333D02*
X53602381Y-72273810D01*
X53650000Y-72369048D01*
X53697619Y-72416667D01*
X53840476Y-72511905D01*
X54030952Y-72559524D01*
X54411905Y-72559524D01*
X54507143Y-72511905D01*
X54554762Y-72464286D01*
X54602381Y-72369048D01*
X54602381Y-72178571D01*
X54554762Y-72083333D01*
X54507143Y-72035714D01*
X54411905Y-71988095D01*
X54173810Y-71988095D01*
X54078571Y-72035714D01*
X54030952Y-72083333D01*
X53983333Y-72178571D01*
X53983333Y-72369048D01*
X54030952Y-72464286D01*
X54078571Y-72511905D01*
X54173810Y-72559524D01*
X94952381Y-73692857D02*
X94476190Y-74026191D01*
X94952381Y-74264286D02*
X93952381Y-74264286D01*
X93952381Y-73883333D01*
X94000000Y-73788095D01*
X94047619Y-73740476D01*
X94142857Y-73692857D01*
X94285714Y-73692857D01*
X94380952Y-73740476D01*
X94428571Y-73788095D01*
X94476190Y-73883333D01*
X94476190Y-74264286D01*
X94952381Y-72740476D02*
X94952381Y-73311905D01*
X94952381Y-73026191D02*
X93952381Y-73026191D01*
X94095238Y-73121429D01*
X94190476Y-73216667D01*
X94238095Y-73311905D01*
X93952381Y-72407143D02*
X93952381Y-71740476D01*
X94952381Y-72169048D01*
X61702381Y-64892857D02*
X61226190Y-65226191D01*
X61702381Y-65464286D02*
X60702381Y-65464286D01*
X60702381Y-65083333D01*
X60750000Y-64988095D01*
X60797619Y-64940476D01*
X60892857Y-64892857D01*
X61035714Y-64892857D01*
X61130952Y-64940476D01*
X61178571Y-64988095D01*
X61226190Y-65083333D01*
X61226190Y-65464286D01*
X61702381Y-63940476D02*
X61702381Y-64511905D01*
X61702381Y-64226191D02*
X60702381Y-64226191D01*
X60845238Y-64321429D01*
X60940476Y-64416667D01*
X60988095Y-64511905D01*
X61130952Y-63369048D02*
X61083333Y-63464286D01*
X61035714Y-63511905D01*
X60940476Y-63559524D01*
X60892857Y-63559524D01*
X60797619Y-63511905D01*
X60750000Y-63464286D01*
X60702381Y-63369048D01*
X60702381Y-63178571D01*
X60750000Y-63083333D01*
X60797619Y-63035714D01*
X60892857Y-62988095D01*
X60940476Y-62988095D01*
X61035714Y-63035714D01*
X61083333Y-63083333D01*
X61130952Y-63178571D01*
X61130952Y-63369048D01*
X61178571Y-63464286D01*
X61226190Y-63511905D01*
X61321429Y-63559524D01*
X61511905Y-63559524D01*
X61607143Y-63511905D01*
X61654762Y-63464286D01*
X61702381Y-63369048D01*
X61702381Y-63178571D01*
X61654762Y-63083333D01*
X61607143Y-63035714D01*
X61511905Y-62988095D01*
X61321429Y-62988095D01*
X61226190Y-63035714D01*
X61178571Y-63083333D01*
X61130952Y-63178571D01*
X102952381Y-64892857D02*
X102476190Y-65226191D01*
X102952381Y-65464286D02*
X101952381Y-65464286D01*
X101952381Y-65083333D01*
X102000000Y-64988095D01*
X102047619Y-64940476D01*
X102142857Y-64892857D01*
X102285714Y-64892857D01*
X102380952Y-64940476D01*
X102428571Y-64988095D01*
X102476190Y-65083333D01*
X102476190Y-65464286D01*
X102952381Y-63940476D02*
X102952381Y-64511905D01*
X102952381Y-64226191D02*
X101952381Y-64226191D01*
X102095238Y-64321429D01*
X102190476Y-64416667D01*
X102238095Y-64511905D01*
X102952381Y-63464286D02*
X102952381Y-63273810D01*
X102904762Y-63178571D01*
X102857143Y-63130952D01*
X102714286Y-63035714D01*
X102523810Y-62988095D01*
X102142857Y-62988095D01*
X102047619Y-63035714D01*
X102000000Y-63083333D01*
X101952381Y-63178571D01*
X101952381Y-63369048D01*
X102000000Y-63464286D01*
X102047619Y-63511905D01*
X102142857Y-63559524D01*
X102380952Y-63559524D01*
X102476190Y-63511905D01*
X102523810Y-63464286D01*
X102571429Y-63369048D01*
X102571429Y-63178571D01*
X102523810Y-63083333D01*
X102476190Y-63035714D01*
X102380952Y-62988095D01*
X42302381Y-64892857D02*
X41826190Y-65226191D01*
X42302381Y-65464286D02*
X41302381Y-65464286D01*
X41302381Y-65083333D01*
X41350000Y-64988095D01*
X41397619Y-64940476D01*
X41492857Y-64892857D01*
X41635714Y-64892857D01*
X41730952Y-64940476D01*
X41778571Y-64988095D01*
X41826190Y-65083333D01*
X41826190Y-65464286D01*
X41397619Y-64511905D02*
X41350000Y-64464286D01*
X41302381Y-64369048D01*
X41302381Y-64130952D01*
X41350000Y-64035714D01*
X41397619Y-63988095D01*
X41492857Y-63940476D01*
X41588095Y-63940476D01*
X41730952Y-63988095D01*
X42302381Y-64559524D01*
X42302381Y-63940476D01*
X41302381Y-63321429D02*
X41302381Y-63226190D01*
X41350000Y-63130952D01*
X41397619Y-63083333D01*
X41492857Y-63035714D01*
X41683333Y-62988095D01*
X41921429Y-62988095D01*
X42111905Y-63035714D01*
X42207143Y-63083333D01*
X42254762Y-63130952D01*
X42302381Y-63226190D01*
X42302381Y-63321429D01*
X42254762Y-63416667D01*
X42207143Y-63464286D01*
X42111905Y-63511905D01*
X41921429Y-63559524D01*
X41683333Y-63559524D01*
X41492857Y-63511905D01*
X41397619Y-63464286D01*
X41350000Y-63416667D01*
X41302381Y-63321429D01*
X82052381Y-64692857D02*
X81576190Y-65026191D01*
X82052381Y-65264286D02*
X81052381Y-65264286D01*
X81052381Y-64883333D01*
X81100000Y-64788095D01*
X81147619Y-64740476D01*
X81242857Y-64692857D01*
X81385714Y-64692857D01*
X81480952Y-64740476D01*
X81528571Y-64788095D01*
X81576190Y-64883333D01*
X81576190Y-65264286D01*
X81147619Y-64311905D02*
X81100000Y-64264286D01*
X81052381Y-64169048D01*
X81052381Y-63930952D01*
X81100000Y-63835714D01*
X81147619Y-63788095D01*
X81242857Y-63740476D01*
X81338095Y-63740476D01*
X81480952Y-63788095D01*
X82052381Y-64359524D01*
X82052381Y-63740476D01*
X82052381Y-62788095D02*
X82052381Y-63359524D01*
X82052381Y-63073810D02*
X81052381Y-63073810D01*
X81195238Y-63169048D01*
X81290476Y-63264286D01*
X81338095Y-63359524D01*
X74602381Y-64892857D02*
X74126190Y-65226191D01*
X74602381Y-65464286D02*
X73602381Y-65464286D01*
X73602381Y-65083333D01*
X73650000Y-64988095D01*
X73697619Y-64940476D01*
X73792857Y-64892857D01*
X73935714Y-64892857D01*
X74030952Y-64940476D01*
X74078571Y-64988095D01*
X74126190Y-65083333D01*
X74126190Y-65464286D01*
X73697619Y-64511905D02*
X73650000Y-64464286D01*
X73602381Y-64369048D01*
X73602381Y-64130952D01*
X73650000Y-64035714D01*
X73697619Y-63988095D01*
X73792857Y-63940476D01*
X73888095Y-63940476D01*
X74030952Y-63988095D01*
X74602381Y-64559524D01*
X74602381Y-63940476D01*
X73697619Y-63559524D02*
X73650000Y-63511905D01*
X73602381Y-63416667D01*
X73602381Y-63178571D01*
X73650000Y-63083333D01*
X73697619Y-63035714D01*
X73792857Y-62988095D01*
X73888095Y-62988095D01*
X74030952Y-63035714D01*
X74602381Y-63607143D01*
X74602381Y-62988095D01*
X115852381Y-64892857D02*
X115376190Y-65226191D01*
X115852381Y-65464286D02*
X114852381Y-65464286D01*
X114852381Y-65083333D01*
X114900000Y-64988095D01*
X114947619Y-64940476D01*
X115042857Y-64892857D01*
X115185714Y-64892857D01*
X115280952Y-64940476D01*
X115328571Y-64988095D01*
X115376190Y-65083333D01*
X115376190Y-65464286D01*
X114947619Y-64511905D02*
X114900000Y-64464286D01*
X114852381Y-64369048D01*
X114852381Y-64130952D01*
X114900000Y-64035714D01*
X114947619Y-63988095D01*
X115042857Y-63940476D01*
X115138095Y-63940476D01*
X115280952Y-63988095D01*
X115852381Y-64559524D01*
X115852381Y-63940476D01*
X114852381Y-63607143D02*
X114852381Y-62988095D01*
X115233333Y-63321429D01*
X115233333Y-63178571D01*
X115280952Y-63083333D01*
X115328571Y-63035714D01*
X115423810Y-62988095D01*
X115661905Y-62988095D01*
X115757143Y-63035714D01*
X115804762Y-63083333D01*
X115852381Y-63178571D01*
X115852381Y-63464286D01*
X115804762Y-63559524D01*
X115757143Y-63607143D01*
X54602381Y-64892857D02*
X54126190Y-65226191D01*
X54602381Y-65464286D02*
X53602381Y-65464286D01*
X53602381Y-65083333D01*
X53650000Y-64988095D01*
X53697619Y-64940476D01*
X53792857Y-64892857D01*
X53935714Y-64892857D01*
X54030952Y-64940476D01*
X54078571Y-64988095D01*
X54126190Y-65083333D01*
X54126190Y-65464286D01*
X53697619Y-64511905D02*
X53650000Y-64464286D01*
X53602381Y-64369048D01*
X53602381Y-64130952D01*
X53650000Y-64035714D01*
X53697619Y-63988095D01*
X53792857Y-63940476D01*
X53888095Y-63940476D01*
X54030952Y-63988095D01*
X54602381Y-64559524D01*
X54602381Y-63940476D01*
X53935714Y-63083333D02*
X54602381Y-63083333D01*
X53554762Y-63321429D02*
X54269048Y-63559524D01*
X54269048Y-62940476D01*
X94952381Y-64692857D02*
X94476190Y-65026191D01*
X94952381Y-65264286D02*
X93952381Y-65264286D01*
X93952381Y-64883333D01*
X94000000Y-64788095D01*
X94047619Y-64740476D01*
X94142857Y-64692857D01*
X94285714Y-64692857D01*
X94380952Y-64740476D01*
X94428571Y-64788095D01*
X94476190Y-64883333D01*
X94476190Y-65264286D01*
X94047619Y-64311905D02*
X94000000Y-64264286D01*
X93952381Y-64169048D01*
X93952381Y-63930952D01*
X94000000Y-63835714D01*
X94047619Y-63788095D01*
X94142857Y-63740476D01*
X94238095Y-63740476D01*
X94380952Y-63788095D01*
X94952381Y-64359524D01*
X94952381Y-63740476D01*
X93952381Y-62835714D02*
X93952381Y-63311905D01*
X94428571Y-63359524D01*
X94380952Y-63311905D01*
X94333333Y-63216667D01*
X94333333Y-62978571D01*
X94380952Y-62883333D01*
X94428571Y-62835714D01*
X94523810Y-62788095D01*
X94761905Y-62788095D01*
X94857143Y-62835714D01*
X94904762Y-62883333D01*
X94952381Y-62978571D01*
X94952381Y-63216667D01*
X94904762Y-63311905D01*
X94857143Y-63359524D01*
X61702381Y-56142857D02*
X61226190Y-56476191D01*
X61702381Y-56714286D02*
X60702381Y-56714286D01*
X60702381Y-56333333D01*
X60750000Y-56238095D01*
X60797619Y-56190476D01*
X60892857Y-56142857D01*
X61035714Y-56142857D01*
X61130952Y-56190476D01*
X61178571Y-56238095D01*
X61226190Y-56333333D01*
X61226190Y-56714286D01*
X60797619Y-55761905D02*
X60750000Y-55714286D01*
X60702381Y-55619048D01*
X60702381Y-55380952D01*
X60750000Y-55285714D01*
X60797619Y-55238095D01*
X60892857Y-55190476D01*
X60988095Y-55190476D01*
X61130952Y-55238095D01*
X61702381Y-55809524D01*
X61702381Y-55190476D01*
X60702381Y-54333333D02*
X60702381Y-54523810D01*
X60750000Y-54619048D01*
X60797619Y-54666667D01*
X60940476Y-54761905D01*
X61130952Y-54809524D01*
X61511905Y-54809524D01*
X61607143Y-54761905D01*
X61654762Y-54714286D01*
X61702381Y-54619048D01*
X61702381Y-54428571D01*
X61654762Y-54333333D01*
X61607143Y-54285714D01*
X61511905Y-54238095D01*
X61273810Y-54238095D01*
X61178571Y-54285714D01*
X61130952Y-54333333D01*
X61083333Y-54428571D01*
X61083333Y-54619048D01*
X61130952Y-54714286D01*
X61178571Y-54761905D01*
X61273810Y-54809524D01*
X102952381Y-56392857D02*
X102476190Y-56726191D01*
X102952381Y-56964286D02*
X101952381Y-56964286D01*
X101952381Y-56583333D01*
X102000000Y-56488095D01*
X102047619Y-56440476D01*
X102142857Y-56392857D01*
X102285714Y-56392857D01*
X102380952Y-56440476D01*
X102428571Y-56488095D01*
X102476190Y-56583333D01*
X102476190Y-56964286D01*
X102047619Y-56011905D02*
X102000000Y-55964286D01*
X101952381Y-55869048D01*
X101952381Y-55630952D01*
X102000000Y-55535714D01*
X102047619Y-55488095D01*
X102142857Y-55440476D01*
X102238095Y-55440476D01*
X102380952Y-55488095D01*
X102952381Y-56059524D01*
X102952381Y-55440476D01*
X101952381Y-55107143D02*
X101952381Y-54440476D01*
X102952381Y-54869048D01*
X42302381Y-56142857D02*
X41826190Y-56476191D01*
X42302381Y-56714286D02*
X41302381Y-56714286D01*
X41302381Y-56333333D01*
X41350000Y-56238095D01*
X41397619Y-56190476D01*
X41492857Y-56142857D01*
X41635714Y-56142857D01*
X41730952Y-56190476D01*
X41778571Y-56238095D01*
X41826190Y-56333333D01*
X41826190Y-56714286D01*
X41397619Y-55761905D02*
X41350000Y-55714286D01*
X41302381Y-55619048D01*
X41302381Y-55380952D01*
X41350000Y-55285714D01*
X41397619Y-55238095D01*
X41492857Y-55190476D01*
X41588095Y-55190476D01*
X41730952Y-55238095D01*
X42302381Y-55809524D01*
X42302381Y-55190476D01*
X41730952Y-54619048D02*
X41683333Y-54714286D01*
X41635714Y-54761905D01*
X41540476Y-54809524D01*
X41492857Y-54809524D01*
X41397619Y-54761905D01*
X41350000Y-54714286D01*
X41302381Y-54619048D01*
X41302381Y-54428571D01*
X41350000Y-54333333D01*
X41397619Y-54285714D01*
X41492857Y-54238095D01*
X41540476Y-54238095D01*
X41635714Y-54285714D01*
X41683333Y-54333333D01*
X41730952Y-54428571D01*
X41730952Y-54619048D01*
X41778571Y-54714286D01*
X41826190Y-54761905D01*
X41921429Y-54809524D01*
X42111905Y-54809524D01*
X42207143Y-54761905D01*
X42254762Y-54714286D01*
X42302381Y-54619048D01*
X42302381Y-54428571D01*
X42254762Y-54333333D01*
X42207143Y-54285714D01*
X42111905Y-54238095D01*
X41921429Y-54238095D01*
X41826190Y-54285714D01*
X41778571Y-54333333D01*
X41730952Y-54428571D01*
X82052381Y-56192857D02*
X81576190Y-56526191D01*
X82052381Y-56764286D02*
X81052381Y-56764286D01*
X81052381Y-56383333D01*
X81100000Y-56288095D01*
X81147619Y-56240476D01*
X81242857Y-56192857D01*
X81385714Y-56192857D01*
X81480952Y-56240476D01*
X81528571Y-56288095D01*
X81576190Y-56383333D01*
X81576190Y-56764286D01*
X81147619Y-55811905D02*
X81100000Y-55764286D01*
X81052381Y-55669048D01*
X81052381Y-55430952D01*
X81100000Y-55335714D01*
X81147619Y-55288095D01*
X81242857Y-55240476D01*
X81338095Y-55240476D01*
X81480952Y-55288095D01*
X82052381Y-55859524D01*
X82052381Y-55240476D01*
X82052381Y-54764286D02*
X82052381Y-54573810D01*
X82004762Y-54478571D01*
X81957143Y-54430952D01*
X81814286Y-54335714D01*
X81623810Y-54288095D01*
X81242857Y-54288095D01*
X81147619Y-54335714D01*
X81100000Y-54383333D01*
X81052381Y-54478571D01*
X81052381Y-54669048D01*
X81100000Y-54764286D01*
X81147619Y-54811905D01*
X81242857Y-54859524D01*
X81480952Y-54859524D01*
X81576190Y-54811905D01*
X81623810Y-54764286D01*
X81671429Y-54669048D01*
X81671429Y-54478571D01*
X81623810Y-54383333D01*
X81576190Y-54335714D01*
X81480952Y-54288095D01*
X74602381Y-56142857D02*
X74126190Y-56476191D01*
X74602381Y-56714286D02*
X73602381Y-56714286D01*
X73602381Y-56333333D01*
X73650000Y-56238095D01*
X73697619Y-56190476D01*
X73792857Y-56142857D01*
X73935714Y-56142857D01*
X74030952Y-56190476D01*
X74078571Y-56238095D01*
X74126190Y-56333333D01*
X74126190Y-56714286D01*
X73602381Y-55809524D02*
X73602381Y-55190476D01*
X73983333Y-55523810D01*
X73983333Y-55380952D01*
X74030952Y-55285714D01*
X74078571Y-55238095D01*
X74173810Y-55190476D01*
X74411905Y-55190476D01*
X74507143Y-55238095D01*
X74554762Y-55285714D01*
X74602381Y-55380952D01*
X74602381Y-55666667D01*
X74554762Y-55761905D01*
X74507143Y-55809524D01*
X73602381Y-54571429D02*
X73602381Y-54476190D01*
X73650000Y-54380952D01*
X73697619Y-54333333D01*
X73792857Y-54285714D01*
X73983333Y-54238095D01*
X74221429Y-54238095D01*
X74411905Y-54285714D01*
X74507143Y-54333333D01*
X74554762Y-54380952D01*
X74602381Y-54476190D01*
X74602381Y-54571429D01*
X74554762Y-54666667D01*
X74507143Y-54714286D01*
X74411905Y-54761905D01*
X74221429Y-54809524D01*
X73983333Y-54809524D01*
X73792857Y-54761905D01*
X73697619Y-54714286D01*
X73650000Y-54666667D01*
X73602381Y-54571429D01*
X115852381Y-56392857D02*
X115376190Y-56726191D01*
X115852381Y-56964286D02*
X114852381Y-56964286D01*
X114852381Y-56583333D01*
X114900000Y-56488095D01*
X114947619Y-56440476D01*
X115042857Y-56392857D01*
X115185714Y-56392857D01*
X115280952Y-56440476D01*
X115328571Y-56488095D01*
X115376190Y-56583333D01*
X115376190Y-56964286D01*
X114852381Y-56059524D02*
X114852381Y-55440476D01*
X115233333Y-55773810D01*
X115233333Y-55630952D01*
X115280952Y-55535714D01*
X115328571Y-55488095D01*
X115423810Y-55440476D01*
X115661905Y-55440476D01*
X115757143Y-55488095D01*
X115804762Y-55535714D01*
X115852381Y-55630952D01*
X115852381Y-55916667D01*
X115804762Y-56011905D01*
X115757143Y-56059524D01*
X115852381Y-54488095D02*
X115852381Y-55059524D01*
X115852381Y-54773810D02*
X114852381Y-54773810D01*
X114995238Y-54869048D01*
X115090476Y-54964286D01*
X115138095Y-55059524D01*
X54602381Y-56142857D02*
X54126190Y-56476191D01*
X54602381Y-56714286D02*
X53602381Y-56714286D01*
X53602381Y-56333333D01*
X53650000Y-56238095D01*
X53697619Y-56190476D01*
X53792857Y-56142857D01*
X53935714Y-56142857D01*
X54030952Y-56190476D01*
X54078571Y-56238095D01*
X54126190Y-56333333D01*
X54126190Y-56714286D01*
X53602381Y-55809524D02*
X53602381Y-55190476D01*
X53983333Y-55523810D01*
X53983333Y-55380952D01*
X54030952Y-55285714D01*
X54078571Y-55238095D01*
X54173810Y-55190476D01*
X54411905Y-55190476D01*
X54507143Y-55238095D01*
X54554762Y-55285714D01*
X54602381Y-55380952D01*
X54602381Y-55666667D01*
X54554762Y-55761905D01*
X54507143Y-55809524D01*
X53697619Y-54809524D02*
X53650000Y-54761905D01*
X53602381Y-54666667D01*
X53602381Y-54428571D01*
X53650000Y-54333333D01*
X53697619Y-54285714D01*
X53792857Y-54238095D01*
X53888095Y-54238095D01*
X54030952Y-54285714D01*
X54602381Y-54857143D01*
X54602381Y-54238095D01*
X94952381Y-56192857D02*
X94476190Y-56526191D01*
X94952381Y-56764286D02*
X93952381Y-56764286D01*
X93952381Y-56383333D01*
X94000000Y-56288095D01*
X94047619Y-56240476D01*
X94142857Y-56192857D01*
X94285714Y-56192857D01*
X94380952Y-56240476D01*
X94428571Y-56288095D01*
X94476190Y-56383333D01*
X94476190Y-56764286D01*
X93952381Y-55859524D02*
X93952381Y-55240476D01*
X94333333Y-55573810D01*
X94333333Y-55430952D01*
X94380952Y-55335714D01*
X94428571Y-55288095D01*
X94523810Y-55240476D01*
X94761905Y-55240476D01*
X94857143Y-55288095D01*
X94904762Y-55335714D01*
X94952381Y-55430952D01*
X94952381Y-55716667D01*
X94904762Y-55811905D01*
X94857143Y-55859524D01*
X93952381Y-54907143D02*
X93952381Y-54288095D01*
X94333333Y-54621429D01*
X94333333Y-54478571D01*
X94380952Y-54383333D01*
X94428571Y-54335714D01*
X94523810Y-54288095D01*
X94761905Y-54288095D01*
X94857143Y-54335714D01*
X94904762Y-54383333D01*
X94952381Y-54478571D01*
X94952381Y-54764286D01*
X94904762Y-54859524D01*
X94857143Y-54907143D01*
X61702381Y-47392857D02*
X61226190Y-47726191D01*
X61702381Y-47964286D02*
X60702381Y-47964286D01*
X60702381Y-47583333D01*
X60750000Y-47488095D01*
X60797619Y-47440476D01*
X60892857Y-47392857D01*
X61035714Y-47392857D01*
X61130952Y-47440476D01*
X61178571Y-47488095D01*
X61226190Y-47583333D01*
X61226190Y-47964286D01*
X60702381Y-47059524D02*
X60702381Y-46440476D01*
X61083333Y-46773810D01*
X61083333Y-46630952D01*
X61130952Y-46535714D01*
X61178571Y-46488095D01*
X61273810Y-46440476D01*
X61511905Y-46440476D01*
X61607143Y-46488095D01*
X61654762Y-46535714D01*
X61702381Y-46630952D01*
X61702381Y-46916667D01*
X61654762Y-47011905D01*
X61607143Y-47059524D01*
X61035714Y-45583333D02*
X61702381Y-45583333D01*
X60654762Y-45821429D02*
X61369048Y-46059524D01*
X61369048Y-45440476D01*
X102952381Y-47642857D02*
X102476190Y-47976191D01*
X102952381Y-48214286D02*
X101952381Y-48214286D01*
X101952381Y-47833333D01*
X102000000Y-47738095D01*
X102047619Y-47690476D01*
X102142857Y-47642857D01*
X102285714Y-47642857D01*
X102380952Y-47690476D01*
X102428571Y-47738095D01*
X102476190Y-47833333D01*
X102476190Y-48214286D01*
X101952381Y-47309524D02*
X101952381Y-46690476D01*
X102333333Y-47023810D01*
X102333333Y-46880952D01*
X102380952Y-46785714D01*
X102428571Y-46738095D01*
X102523810Y-46690476D01*
X102761905Y-46690476D01*
X102857143Y-46738095D01*
X102904762Y-46785714D01*
X102952381Y-46880952D01*
X102952381Y-47166667D01*
X102904762Y-47261905D01*
X102857143Y-47309524D01*
X101952381Y-45785714D02*
X101952381Y-46261905D01*
X102428571Y-46309524D01*
X102380952Y-46261905D01*
X102333333Y-46166667D01*
X102333333Y-45928571D01*
X102380952Y-45833333D01*
X102428571Y-45785714D01*
X102523810Y-45738095D01*
X102761905Y-45738095D01*
X102857143Y-45785714D01*
X102904762Y-45833333D01*
X102952381Y-45928571D01*
X102952381Y-46166667D01*
X102904762Y-46261905D01*
X102857143Y-46309524D01*
X42302381Y-47642857D02*
X41826190Y-47976191D01*
X42302381Y-48214286D02*
X41302381Y-48214286D01*
X41302381Y-47833333D01*
X41350000Y-47738095D01*
X41397619Y-47690476D01*
X41492857Y-47642857D01*
X41635714Y-47642857D01*
X41730952Y-47690476D01*
X41778571Y-47738095D01*
X41826190Y-47833333D01*
X41826190Y-48214286D01*
X41302381Y-47309524D02*
X41302381Y-46690476D01*
X41683333Y-47023810D01*
X41683333Y-46880952D01*
X41730952Y-46785714D01*
X41778571Y-46738095D01*
X41873810Y-46690476D01*
X42111905Y-46690476D01*
X42207143Y-46738095D01*
X42254762Y-46785714D01*
X42302381Y-46880952D01*
X42302381Y-47166667D01*
X42254762Y-47261905D01*
X42207143Y-47309524D01*
X41302381Y-45833333D02*
X41302381Y-46023810D01*
X41350000Y-46119048D01*
X41397619Y-46166667D01*
X41540476Y-46261905D01*
X41730952Y-46309524D01*
X42111905Y-46309524D01*
X42207143Y-46261905D01*
X42254762Y-46214286D01*
X42302381Y-46119048D01*
X42302381Y-45928571D01*
X42254762Y-45833333D01*
X42207143Y-45785714D01*
X42111905Y-45738095D01*
X41873810Y-45738095D01*
X41778571Y-45785714D01*
X41730952Y-45833333D01*
X41683333Y-45928571D01*
X41683333Y-46119048D01*
X41730952Y-46214286D01*
X41778571Y-46261905D01*
X41873810Y-46309524D01*
X82052381Y-47442857D02*
X81576190Y-47776191D01*
X82052381Y-48014286D02*
X81052381Y-48014286D01*
X81052381Y-47633333D01*
X81100000Y-47538095D01*
X81147619Y-47490476D01*
X81242857Y-47442857D01*
X81385714Y-47442857D01*
X81480952Y-47490476D01*
X81528571Y-47538095D01*
X81576190Y-47633333D01*
X81576190Y-48014286D01*
X81052381Y-47109524D02*
X81052381Y-46490476D01*
X81433333Y-46823810D01*
X81433333Y-46680952D01*
X81480952Y-46585714D01*
X81528571Y-46538095D01*
X81623810Y-46490476D01*
X81861905Y-46490476D01*
X81957143Y-46538095D01*
X82004762Y-46585714D01*
X82052381Y-46680952D01*
X82052381Y-46966667D01*
X82004762Y-47061905D01*
X81957143Y-47109524D01*
X81052381Y-46157143D02*
X81052381Y-45490476D01*
X82052381Y-45919048D01*
X74602381Y-47392857D02*
X74126190Y-47726191D01*
X74602381Y-47964286D02*
X73602381Y-47964286D01*
X73602381Y-47583333D01*
X73650000Y-47488095D01*
X73697619Y-47440476D01*
X73792857Y-47392857D01*
X73935714Y-47392857D01*
X74030952Y-47440476D01*
X74078571Y-47488095D01*
X74126190Y-47583333D01*
X74126190Y-47964286D01*
X73602381Y-47059524D02*
X73602381Y-46440476D01*
X73983333Y-46773810D01*
X73983333Y-46630952D01*
X74030952Y-46535714D01*
X74078571Y-46488095D01*
X74173810Y-46440476D01*
X74411905Y-46440476D01*
X74507143Y-46488095D01*
X74554762Y-46535714D01*
X74602381Y-46630952D01*
X74602381Y-46916667D01*
X74554762Y-47011905D01*
X74507143Y-47059524D01*
X74030952Y-45869048D02*
X73983333Y-45964286D01*
X73935714Y-46011905D01*
X73840476Y-46059524D01*
X73792857Y-46059524D01*
X73697619Y-46011905D01*
X73650000Y-45964286D01*
X73602381Y-45869048D01*
X73602381Y-45678571D01*
X73650000Y-45583333D01*
X73697619Y-45535714D01*
X73792857Y-45488095D01*
X73840476Y-45488095D01*
X73935714Y-45535714D01*
X73983333Y-45583333D01*
X74030952Y-45678571D01*
X74030952Y-45869048D01*
X74078571Y-45964286D01*
X74126190Y-46011905D01*
X74221429Y-46059524D01*
X74411905Y-46059524D01*
X74507143Y-46011905D01*
X74554762Y-45964286D01*
X74602381Y-45869048D01*
X74602381Y-45678571D01*
X74554762Y-45583333D01*
X74507143Y-45535714D01*
X74411905Y-45488095D01*
X74221429Y-45488095D01*
X74126190Y-45535714D01*
X74078571Y-45583333D01*
X74030952Y-45678571D01*
X115852381Y-47642857D02*
X115376190Y-47976191D01*
X115852381Y-48214286D02*
X114852381Y-48214286D01*
X114852381Y-47833333D01*
X114900000Y-47738095D01*
X114947619Y-47690476D01*
X115042857Y-47642857D01*
X115185714Y-47642857D01*
X115280952Y-47690476D01*
X115328571Y-47738095D01*
X115376190Y-47833333D01*
X115376190Y-48214286D01*
X114852381Y-47309524D02*
X114852381Y-46690476D01*
X115233333Y-47023810D01*
X115233333Y-46880952D01*
X115280952Y-46785714D01*
X115328571Y-46738095D01*
X115423810Y-46690476D01*
X115661905Y-46690476D01*
X115757143Y-46738095D01*
X115804762Y-46785714D01*
X115852381Y-46880952D01*
X115852381Y-47166667D01*
X115804762Y-47261905D01*
X115757143Y-47309524D01*
X115852381Y-46214286D02*
X115852381Y-46023810D01*
X115804762Y-45928571D01*
X115757143Y-45880952D01*
X115614286Y-45785714D01*
X115423810Y-45738095D01*
X115042857Y-45738095D01*
X114947619Y-45785714D01*
X114900000Y-45833333D01*
X114852381Y-45928571D01*
X114852381Y-46119048D01*
X114900000Y-46214286D01*
X114947619Y-46261905D01*
X115042857Y-46309524D01*
X115280952Y-46309524D01*
X115376190Y-46261905D01*
X115423810Y-46214286D01*
X115471429Y-46119048D01*
X115471429Y-45928571D01*
X115423810Y-45833333D01*
X115376190Y-45785714D01*
X115280952Y-45738095D01*
X54602381Y-47642857D02*
X54126190Y-47976191D01*
X54602381Y-48214286D02*
X53602381Y-48214286D01*
X53602381Y-47833333D01*
X53650000Y-47738095D01*
X53697619Y-47690476D01*
X53792857Y-47642857D01*
X53935714Y-47642857D01*
X54030952Y-47690476D01*
X54078571Y-47738095D01*
X54126190Y-47833333D01*
X54126190Y-48214286D01*
X53935714Y-46785714D02*
X54602381Y-46785714D01*
X53554762Y-47023810D02*
X54269048Y-47261905D01*
X54269048Y-46642857D01*
X53602381Y-46071429D02*
X53602381Y-45976190D01*
X53650000Y-45880952D01*
X53697619Y-45833333D01*
X53792857Y-45785714D01*
X53983333Y-45738095D01*
X54221429Y-45738095D01*
X54411905Y-45785714D01*
X54507143Y-45833333D01*
X54554762Y-45880952D01*
X54602381Y-45976190D01*
X54602381Y-46071429D01*
X54554762Y-46166667D01*
X54507143Y-46214286D01*
X54411905Y-46261905D01*
X54221429Y-46309524D01*
X53983333Y-46309524D01*
X53792857Y-46261905D01*
X53697619Y-46214286D01*
X53650000Y-46166667D01*
X53602381Y-46071429D01*
X94952381Y-47442857D02*
X94476190Y-47776191D01*
X94952381Y-48014286D02*
X93952381Y-48014286D01*
X93952381Y-47633333D01*
X94000000Y-47538095D01*
X94047619Y-47490476D01*
X94142857Y-47442857D01*
X94285714Y-47442857D01*
X94380952Y-47490476D01*
X94428571Y-47538095D01*
X94476190Y-47633333D01*
X94476190Y-48014286D01*
X94285714Y-46585714D02*
X94952381Y-46585714D01*
X93904762Y-46823810D02*
X94619048Y-47061905D01*
X94619048Y-46442857D01*
X94952381Y-45538095D02*
X94952381Y-46109524D01*
X94952381Y-45823810D02*
X93952381Y-45823810D01*
X94095238Y-45919048D01*
X94190476Y-46014286D01*
X94238095Y-46109524D01*
X37988095Y-92002381D02*
X37988095Y-92811905D01*
X38035714Y-92907143D01*
X38083333Y-92954762D01*
X38178571Y-93002381D01*
X38369048Y-93002381D01*
X38464286Y-92954762D01*
X38511905Y-92907143D01*
X38559524Y-92811905D01*
X38559524Y-92002381D01*
X39559524Y-93002381D02*
X38988095Y-93002381D01*
X39273809Y-93002381D02*
X39273809Y-92002381D01*
X39178571Y-92145238D01*
X39083333Y-92240476D01*
X38988095Y-92288095D01*
X30788095Y-90384381D02*
X30788095Y-91193905D01*
X30835714Y-91289143D01*
X30883333Y-91336762D01*
X30978571Y-91384381D01*
X31169048Y-91384381D01*
X31264286Y-91336762D01*
X31311905Y-91289143D01*
X31359524Y-91193905D01*
X31359524Y-90384381D01*
X31740476Y-90384381D02*
X32359524Y-90384381D01*
X32026190Y-90765333D01*
X32169048Y-90765333D01*
X32264286Y-90812952D01*
X32311905Y-90860571D01*
X32359524Y-90955810D01*
X32359524Y-91193905D01*
X32311905Y-91289143D01*
X32264286Y-91336762D01*
X32169048Y-91384381D01*
X31883333Y-91384381D01*
X31788095Y-91336762D01*
X31740476Y-91289143D01*
X56838095Y-79452381D02*
X56838095Y-80261905D01*
X56885714Y-80357143D01*
X56933333Y-80404762D01*
X57028571Y-80452381D01*
X57219048Y-80452381D01*
X57314286Y-80404762D01*
X57361905Y-80357143D01*
X57409524Y-80261905D01*
X57409524Y-79452381D01*
X58314286Y-79785714D02*
X58314286Y-80452381D01*
X58076190Y-79404762D02*
X57838095Y-80119048D01*
X58457143Y-80119048D01*
X97238095Y-79852381D02*
X97238095Y-80661905D01*
X97285714Y-80757143D01*
X97333333Y-80804762D01*
X97428571Y-80852381D01*
X97619048Y-80852381D01*
X97714286Y-80804762D01*
X97761905Y-80757143D01*
X97809524Y-80661905D01*
X97809524Y-79852381D01*
X98761905Y-79852381D02*
X98285714Y-79852381D01*
X98238095Y-80328571D01*
X98285714Y-80280952D01*
X98380952Y-80233333D01*
X98619048Y-80233333D01*
X98714286Y-80280952D01*
X98761905Y-80328571D01*
X98809524Y-80423810D01*
X98809524Y-80661905D01*
X98761905Y-80757143D01*
X98714286Y-80804762D01*
X98619048Y-80852381D01*
X98380952Y-80852381D01*
X98285714Y-80804762D01*
X98238095Y-80757143D01*
X66938095Y-69152381D02*
X66938095Y-69961905D01*
X66985714Y-70057143D01*
X67033333Y-70104762D01*
X67128571Y-70152381D01*
X67319048Y-70152381D01*
X67414286Y-70104762D01*
X67461905Y-70057143D01*
X67509524Y-69961905D01*
X67509524Y-69152381D01*
X68414286Y-69152381D02*
X68223809Y-69152381D01*
X68128571Y-69200000D01*
X68080952Y-69247619D01*
X67985714Y-69390476D01*
X67938095Y-69580952D01*
X67938095Y-69961905D01*
X67985714Y-70057143D01*
X68033333Y-70104762D01*
X68128571Y-70152381D01*
X68319048Y-70152381D01*
X68414286Y-70104762D01*
X68461905Y-70057143D01*
X68509524Y-69961905D01*
X68509524Y-69723810D01*
X68461905Y-69628571D01*
X68414286Y-69580952D01*
X68319048Y-69533333D01*
X68128571Y-69533333D01*
X68033333Y-69580952D01*
X67985714Y-69628571D01*
X67938095Y-69723810D01*
X108188095Y-69552381D02*
X108188095Y-70361905D01*
X108235714Y-70457143D01*
X108283333Y-70504762D01*
X108378571Y-70552381D01*
X108569048Y-70552381D01*
X108664286Y-70504762D01*
X108711905Y-70457143D01*
X108759524Y-70361905D01*
X108759524Y-69552381D01*
X109140476Y-69552381D02*
X109807143Y-69552381D01*
X109378571Y-70552381D01*
X46938095Y-69552381D02*
X46938095Y-70361905D01*
X46985714Y-70457143D01*
X47033333Y-70504762D01*
X47128571Y-70552381D01*
X47319048Y-70552381D01*
X47414286Y-70504762D01*
X47461905Y-70457143D01*
X47509524Y-70361905D01*
X47509524Y-69552381D01*
X48128571Y-69980952D02*
X48033333Y-69933333D01*
X47985714Y-69885714D01*
X47938095Y-69790476D01*
X47938095Y-69742857D01*
X47985714Y-69647619D01*
X48033333Y-69600000D01*
X48128571Y-69552381D01*
X48319048Y-69552381D01*
X48414286Y-69600000D01*
X48461905Y-69647619D01*
X48509524Y-69742857D01*
X48509524Y-69790476D01*
X48461905Y-69885714D01*
X48414286Y-69933333D01*
X48319048Y-69980952D01*
X48128571Y-69980952D01*
X48033333Y-70028571D01*
X47985714Y-70076190D01*
X47938095Y-70171429D01*
X47938095Y-70361905D01*
X47985714Y-70457143D01*
X48033333Y-70504762D01*
X48128571Y-70552381D01*
X48319048Y-70552381D01*
X48414286Y-70504762D01*
X48461905Y-70457143D01*
X48509524Y-70361905D01*
X48509524Y-70171429D01*
X48461905Y-70076190D01*
X48414286Y-70028571D01*
X48319048Y-69980952D01*
X87288095Y-69352381D02*
X87288095Y-70161905D01*
X87335714Y-70257143D01*
X87383333Y-70304762D01*
X87478571Y-70352381D01*
X87669048Y-70352381D01*
X87764286Y-70304762D01*
X87811905Y-70257143D01*
X87859524Y-70161905D01*
X87859524Y-69352381D01*
X88383333Y-70352381D02*
X88573809Y-70352381D01*
X88669048Y-70304762D01*
X88716667Y-70257143D01*
X88811905Y-70114286D01*
X88859524Y-69923810D01*
X88859524Y-69542857D01*
X88811905Y-69447619D01*
X88764286Y-69400000D01*
X88669048Y-69352381D01*
X88478571Y-69352381D01*
X88383333Y-69400000D01*
X88335714Y-69447619D01*
X88288095Y-69542857D01*
X88288095Y-69780952D01*
X88335714Y-69876190D01*
X88383333Y-69923810D01*
X88478571Y-69971429D01*
X88669048Y-69971429D01*
X88764286Y-69923810D01*
X88811905Y-69876190D01*
X88859524Y-69780952D01*
X66461905Y-60552381D02*
X66461905Y-61361905D01*
X66509524Y-61457143D01*
X66557143Y-61504762D01*
X66652381Y-61552381D01*
X66842858Y-61552381D01*
X66938096Y-61504762D01*
X66985715Y-61457143D01*
X67033334Y-61361905D01*
X67033334Y-60552381D01*
X68033334Y-61552381D02*
X67461905Y-61552381D01*
X67747619Y-61552381D02*
X67747619Y-60552381D01*
X67652381Y-60695238D01*
X67557143Y-60790476D01*
X67461905Y-60838095D01*
X68652381Y-60552381D02*
X68747620Y-60552381D01*
X68842858Y-60600000D01*
X68890477Y-60647619D01*
X68938096Y-60742857D01*
X68985715Y-60933333D01*
X68985715Y-61171429D01*
X68938096Y-61361905D01*
X68890477Y-61457143D01*
X68842858Y-61504762D01*
X68747620Y-61552381D01*
X68652381Y-61552381D01*
X68557143Y-61504762D01*
X68509524Y-61457143D01*
X68461905Y-61361905D01*
X68414286Y-61171429D01*
X68414286Y-60933333D01*
X68461905Y-60742857D01*
X68509524Y-60647619D01*
X68557143Y-60600000D01*
X68652381Y-60552381D01*
X107711905Y-60552381D02*
X107711905Y-61361905D01*
X107759524Y-61457143D01*
X107807143Y-61504762D01*
X107902381Y-61552381D01*
X108092858Y-61552381D01*
X108188096Y-61504762D01*
X108235715Y-61457143D01*
X108283334Y-61361905D01*
X108283334Y-60552381D01*
X109283334Y-61552381D02*
X108711905Y-61552381D01*
X108997619Y-61552381D02*
X108997619Y-60552381D01*
X108902381Y-60695238D01*
X108807143Y-60790476D01*
X108711905Y-60838095D01*
X110235715Y-61552381D02*
X109664286Y-61552381D01*
X109950000Y-61552381D02*
X109950000Y-60552381D01*
X109854762Y-60695238D01*
X109759524Y-60790476D01*
X109664286Y-60838095D01*
X46461905Y-60552381D02*
X46461905Y-61361905D01*
X46509524Y-61457143D01*
X46557143Y-61504762D01*
X46652381Y-61552381D01*
X46842858Y-61552381D01*
X46938096Y-61504762D01*
X46985715Y-61457143D01*
X47033334Y-61361905D01*
X47033334Y-60552381D01*
X48033334Y-61552381D02*
X47461905Y-61552381D01*
X47747619Y-61552381D02*
X47747619Y-60552381D01*
X47652381Y-60695238D01*
X47557143Y-60790476D01*
X47461905Y-60838095D01*
X48414286Y-60647619D02*
X48461905Y-60600000D01*
X48557143Y-60552381D01*
X48795239Y-60552381D01*
X48890477Y-60600000D01*
X48938096Y-60647619D01*
X48985715Y-60742857D01*
X48985715Y-60838095D01*
X48938096Y-60980952D01*
X48366667Y-61552381D01*
X48985715Y-61552381D01*
X86811905Y-60352381D02*
X86811905Y-61161905D01*
X86859524Y-61257143D01*
X86907143Y-61304762D01*
X87002381Y-61352381D01*
X87192858Y-61352381D01*
X87288096Y-61304762D01*
X87335715Y-61257143D01*
X87383334Y-61161905D01*
X87383334Y-60352381D01*
X88383334Y-61352381D02*
X87811905Y-61352381D01*
X88097619Y-61352381D02*
X88097619Y-60352381D01*
X88002381Y-60495238D01*
X87907143Y-60590476D01*
X87811905Y-60638095D01*
X88716667Y-60352381D02*
X89335715Y-60352381D01*
X89002381Y-60733333D01*
X89145239Y-60733333D01*
X89240477Y-60780952D01*
X89288096Y-60828571D01*
X89335715Y-60923810D01*
X89335715Y-61161905D01*
X89288096Y-61257143D01*
X89240477Y-61304762D01*
X89145239Y-61352381D01*
X88859524Y-61352381D01*
X88764286Y-61304762D01*
X88716667Y-61257143D01*
X66461905Y-51802381D02*
X66461905Y-52611905D01*
X66509524Y-52707143D01*
X66557143Y-52754762D01*
X66652381Y-52802381D01*
X66842858Y-52802381D01*
X66938096Y-52754762D01*
X66985715Y-52707143D01*
X67033334Y-52611905D01*
X67033334Y-51802381D01*
X68033334Y-52802381D02*
X67461905Y-52802381D01*
X67747619Y-52802381D02*
X67747619Y-51802381D01*
X67652381Y-51945238D01*
X67557143Y-52040476D01*
X67461905Y-52088095D01*
X68890477Y-52135714D02*
X68890477Y-52802381D01*
X68652381Y-51754762D02*
X68414286Y-52469048D01*
X69033334Y-52469048D01*
X107711905Y-52052381D02*
X107711905Y-52861905D01*
X107759524Y-52957143D01*
X107807143Y-53004762D01*
X107902381Y-53052381D01*
X108092858Y-53052381D01*
X108188096Y-53004762D01*
X108235715Y-52957143D01*
X108283334Y-52861905D01*
X108283334Y-52052381D01*
X109283334Y-53052381D02*
X108711905Y-53052381D01*
X108997619Y-53052381D02*
X108997619Y-52052381D01*
X108902381Y-52195238D01*
X108807143Y-52290476D01*
X108711905Y-52338095D01*
X110188096Y-52052381D02*
X109711905Y-52052381D01*
X109664286Y-52528571D01*
X109711905Y-52480952D01*
X109807143Y-52433333D01*
X110045239Y-52433333D01*
X110140477Y-52480952D01*
X110188096Y-52528571D01*
X110235715Y-52623810D01*
X110235715Y-52861905D01*
X110188096Y-52957143D01*
X110140477Y-53004762D01*
X110045239Y-53052381D01*
X109807143Y-53052381D01*
X109711905Y-53004762D01*
X109664286Y-52957143D01*
X46461905Y-51802381D02*
X46461905Y-52611905D01*
X46509524Y-52707143D01*
X46557143Y-52754762D01*
X46652381Y-52802381D01*
X46842858Y-52802381D01*
X46938096Y-52754762D01*
X46985715Y-52707143D01*
X47033334Y-52611905D01*
X47033334Y-51802381D01*
X48033334Y-52802381D02*
X47461905Y-52802381D01*
X47747619Y-52802381D02*
X47747619Y-51802381D01*
X47652381Y-51945238D01*
X47557143Y-52040476D01*
X47461905Y-52088095D01*
X48890477Y-51802381D02*
X48700000Y-51802381D01*
X48604762Y-51850000D01*
X48557143Y-51897619D01*
X48461905Y-52040476D01*
X48414286Y-52230952D01*
X48414286Y-52611905D01*
X48461905Y-52707143D01*
X48509524Y-52754762D01*
X48604762Y-52802381D01*
X48795239Y-52802381D01*
X48890477Y-52754762D01*
X48938096Y-52707143D01*
X48985715Y-52611905D01*
X48985715Y-52373810D01*
X48938096Y-52278571D01*
X48890477Y-52230952D01*
X48795239Y-52183333D01*
X48604762Y-52183333D01*
X48509524Y-52230952D01*
X48461905Y-52278571D01*
X48414286Y-52373810D01*
X86811905Y-51852381D02*
X86811905Y-52661905D01*
X86859524Y-52757143D01*
X86907143Y-52804762D01*
X87002381Y-52852381D01*
X87192858Y-52852381D01*
X87288096Y-52804762D01*
X87335715Y-52757143D01*
X87383334Y-52661905D01*
X87383334Y-51852381D01*
X88383334Y-52852381D02*
X87811905Y-52852381D01*
X88097619Y-52852381D02*
X88097619Y-51852381D01*
X88002381Y-51995238D01*
X87907143Y-52090476D01*
X87811905Y-52138095D01*
X88716667Y-51852381D02*
X89383334Y-51852381D01*
X88954762Y-52852381D01*
X66461905Y-43102381D02*
X66461905Y-43911905D01*
X66509524Y-44007143D01*
X66557143Y-44054762D01*
X66652381Y-44102381D01*
X66842858Y-44102381D01*
X66938096Y-44054762D01*
X66985715Y-44007143D01*
X67033334Y-43911905D01*
X67033334Y-43102381D01*
X68033334Y-44102381D02*
X67461905Y-44102381D01*
X67747619Y-44102381D02*
X67747619Y-43102381D01*
X67652381Y-43245238D01*
X67557143Y-43340476D01*
X67461905Y-43388095D01*
X68604762Y-43530952D02*
X68509524Y-43483333D01*
X68461905Y-43435714D01*
X68414286Y-43340476D01*
X68414286Y-43292857D01*
X68461905Y-43197619D01*
X68509524Y-43150000D01*
X68604762Y-43102381D01*
X68795239Y-43102381D01*
X68890477Y-43150000D01*
X68938096Y-43197619D01*
X68985715Y-43292857D01*
X68985715Y-43340476D01*
X68938096Y-43435714D01*
X68890477Y-43483333D01*
X68795239Y-43530952D01*
X68604762Y-43530952D01*
X68509524Y-43578571D01*
X68461905Y-43626190D01*
X68414286Y-43721429D01*
X68414286Y-43911905D01*
X68461905Y-44007143D01*
X68509524Y-44054762D01*
X68604762Y-44102381D01*
X68795239Y-44102381D01*
X68890477Y-44054762D01*
X68938096Y-44007143D01*
X68985715Y-43911905D01*
X68985715Y-43721429D01*
X68938096Y-43626190D01*
X68890477Y-43578571D01*
X68795239Y-43530952D01*
X107711905Y-43302381D02*
X107711905Y-44111905D01*
X107759524Y-44207143D01*
X107807143Y-44254762D01*
X107902381Y-44302381D01*
X108092858Y-44302381D01*
X108188096Y-44254762D01*
X108235715Y-44207143D01*
X108283334Y-44111905D01*
X108283334Y-43302381D01*
X109283334Y-44302381D02*
X108711905Y-44302381D01*
X108997619Y-44302381D02*
X108997619Y-43302381D01*
X108902381Y-43445238D01*
X108807143Y-43540476D01*
X108711905Y-43588095D01*
X109759524Y-44302381D02*
X109950000Y-44302381D01*
X110045239Y-44254762D01*
X110092858Y-44207143D01*
X110188096Y-44064286D01*
X110235715Y-43873810D01*
X110235715Y-43492857D01*
X110188096Y-43397619D01*
X110140477Y-43350000D01*
X110045239Y-43302381D01*
X109854762Y-43302381D01*
X109759524Y-43350000D01*
X109711905Y-43397619D01*
X109664286Y-43492857D01*
X109664286Y-43730952D01*
X109711905Y-43826190D01*
X109759524Y-43873810D01*
X109854762Y-43921429D01*
X110045239Y-43921429D01*
X110140477Y-43873810D01*
X110188096Y-43826190D01*
X110235715Y-43730952D01*
X46461905Y-43302381D02*
X46461905Y-44111905D01*
X46509524Y-44207143D01*
X46557143Y-44254762D01*
X46652381Y-44302381D01*
X46842858Y-44302381D01*
X46938096Y-44254762D01*
X46985715Y-44207143D01*
X47033334Y-44111905D01*
X47033334Y-43302381D01*
X47461905Y-43397619D02*
X47509524Y-43350000D01*
X47604762Y-43302381D01*
X47842858Y-43302381D01*
X47938096Y-43350000D01*
X47985715Y-43397619D01*
X48033334Y-43492857D01*
X48033334Y-43588095D01*
X47985715Y-43730952D01*
X47414286Y-44302381D01*
X48033334Y-44302381D01*
X48652381Y-43302381D02*
X48747620Y-43302381D01*
X48842858Y-43350000D01*
X48890477Y-43397619D01*
X48938096Y-43492857D01*
X48985715Y-43683333D01*
X48985715Y-43921429D01*
X48938096Y-44111905D01*
X48890477Y-44207143D01*
X48842858Y-44254762D01*
X48747620Y-44302381D01*
X48652381Y-44302381D01*
X48557143Y-44254762D01*
X48509524Y-44207143D01*
X48461905Y-44111905D01*
X48414286Y-43921429D01*
X48414286Y-43683333D01*
X48461905Y-43492857D01*
X48509524Y-43397619D01*
X48557143Y-43350000D01*
X48652381Y-43302381D01*
X86811905Y-43102381D02*
X86811905Y-43911905D01*
X86859524Y-44007143D01*
X86907143Y-44054762D01*
X87002381Y-44102381D01*
X87192858Y-44102381D01*
X87288096Y-44054762D01*
X87335715Y-44007143D01*
X87383334Y-43911905D01*
X87383334Y-43102381D01*
X87811905Y-43197619D02*
X87859524Y-43150000D01*
X87954762Y-43102381D01*
X88192858Y-43102381D01*
X88288096Y-43150000D01*
X88335715Y-43197619D01*
X88383334Y-43292857D01*
X88383334Y-43388095D01*
X88335715Y-43530952D01*
X87764286Y-44102381D01*
X88383334Y-44102381D01*
X89335715Y-44102381D02*
X88764286Y-44102381D01*
X89050000Y-44102381D02*
X89050000Y-43102381D01*
X88954762Y-43245238D01*
X88859524Y-43340476D01*
X88764286Y-43388095D01*
X67386667Y-25622381D02*
X67386667Y-26336667D01*
X67339047Y-26479524D01*
X67243809Y-26574762D01*
X67100952Y-26622381D01*
X67005714Y-26622381D01*
X67767619Y-25622381D02*
X68386667Y-25622381D01*
X68053333Y-26003333D01*
X68196191Y-26003333D01*
X68291429Y-26050952D01*
X68339048Y-26098571D01*
X68386667Y-26193810D01*
X68386667Y-26431905D01*
X68339048Y-26527143D01*
X68291429Y-26574762D01*
X68196191Y-26622381D01*
X67910476Y-26622381D01*
X67815238Y-26574762D01*
X67767619Y-26527143D01*
X47386667Y-25622381D02*
X47386667Y-26336667D01*
X47339047Y-26479524D01*
X47243809Y-26574762D01*
X47100952Y-26622381D01*
X47005714Y-26622381D01*
X48291429Y-25955714D02*
X48291429Y-26622381D01*
X48053333Y-25574762D02*
X47815238Y-26289048D01*
X48434286Y-26289048D01*
X108636667Y-25622381D02*
X108636667Y-26336667D01*
X108589047Y-26479524D01*
X108493809Y-26574762D01*
X108350952Y-26622381D01*
X108255714Y-26622381D01*
X109589048Y-25622381D02*
X109112857Y-25622381D01*
X109065238Y-26098571D01*
X109112857Y-26050952D01*
X109208095Y-26003333D01*
X109446191Y-26003333D01*
X109541429Y-26050952D01*
X109589048Y-26098571D01*
X109636667Y-26193810D01*
X109636667Y-26431905D01*
X109589048Y-26527143D01*
X109541429Y-26574762D01*
X109446191Y-26622381D01*
X109208095Y-26622381D01*
X109112857Y-26574762D01*
X109065238Y-26527143D01*
X87736667Y-25422381D02*
X87736667Y-26136667D01*
X87689047Y-26279524D01*
X87593809Y-26374762D01*
X87450952Y-26422381D01*
X87355714Y-26422381D01*
X88641429Y-25422381D02*
X88450952Y-25422381D01*
X88355714Y-25470000D01*
X88308095Y-25517619D01*
X88212857Y-25660476D01*
X88165238Y-25850952D01*
X88165238Y-26231905D01*
X88212857Y-26327143D01*
X88260476Y-26374762D01*
X88355714Y-26422381D01*
X88546191Y-26422381D01*
X88641429Y-26374762D01*
X88689048Y-26327143D01*
X88736667Y-26231905D01*
X88736667Y-25993810D01*
X88689048Y-25898571D01*
X88641429Y-25850952D01*
X88546191Y-25803333D01*
X88355714Y-25803333D01*
X88260476Y-25850952D01*
X88212857Y-25898571D01*
X88165238Y-25993810D01*
X35366667Y-116852381D02*
X35366667Y-117566667D01*
X35319047Y-117709524D01*
X35223809Y-117804762D01*
X35080952Y-117852381D01*
X34985714Y-117852381D01*
X36366667Y-117852381D02*
X35795238Y-117852381D01*
X36080952Y-117852381D02*
X36080952Y-116852381D01*
X35985714Y-116995238D01*
X35890476Y-117090476D01*
X35795238Y-117138095D01*
X122166667Y-115852381D02*
X122166667Y-116566667D01*
X122119047Y-116709524D01*
X122023809Y-116804762D01*
X121880952Y-116852381D01*
X121785714Y-116852381D01*
X122595238Y-115947619D02*
X122642857Y-115900000D01*
X122738095Y-115852381D01*
X122976191Y-115852381D01*
X123071429Y-115900000D01*
X123119048Y-115947619D01*
X123166667Y-116042857D01*
X123166667Y-116138095D01*
X123119048Y-116280952D01*
X122547619Y-116852381D01*
X123166667Y-116852381D01*
X122166667Y-93752381D02*
X122166667Y-94466667D01*
X122119047Y-94609524D01*
X122023809Y-94704762D01*
X121880952Y-94752381D01*
X121785714Y-94752381D01*
X122547619Y-93752381D02*
X123214286Y-93752381D01*
X122785714Y-94752381D01*
X72261905Y-124052381D02*
X72261905Y-123052381D01*
X72500000Y-123052381D01*
X72642858Y-123100000D01*
X72738096Y-123195238D01*
X72785715Y-123290476D01*
X72833334Y-123480952D01*
X72833334Y-123623810D01*
X72785715Y-123814286D01*
X72738096Y-123909524D01*
X72642858Y-124004762D01*
X72500000Y-124052381D01*
X72261905Y-124052381D01*
X73166667Y-123052381D02*
X73785715Y-123052381D01*
X73452381Y-123433333D01*
X73595239Y-123433333D01*
X73690477Y-123480952D01*
X73738096Y-123528571D01*
X73785715Y-123623810D01*
X73785715Y-123861905D01*
X73738096Y-123957143D01*
X73690477Y-124004762D01*
X73595239Y-124052381D01*
X73309524Y-124052381D01*
X73214286Y-124004762D01*
X73166667Y-123957143D01*
X60304762Y-116647619D02*
X60209524Y-116600000D01*
X60114286Y-116504762D01*
X59971429Y-116361905D01*
X59876190Y-116314286D01*
X59780952Y-116314286D01*
X59828571Y-116552381D02*
X59733333Y-116504762D01*
X59638095Y-116409524D01*
X59590476Y-116219048D01*
X59590476Y-115885714D01*
X59638095Y-115695238D01*
X59733333Y-115600000D01*
X59828571Y-115552381D01*
X60019048Y-115552381D01*
X60114286Y-115600000D01*
X60209524Y-115695238D01*
X60257143Y-115885714D01*
X60257143Y-116219048D01*
X60209524Y-116409524D01*
X60114286Y-116504762D01*
X60019048Y-116552381D01*
X59828571Y-116552381D01*
X61114286Y-115552381D02*
X60923809Y-115552381D01*
X60828571Y-115600000D01*
X60780952Y-115647619D01*
X60685714Y-115790476D01*
X60638095Y-115980952D01*
X60638095Y-116361905D01*
X60685714Y-116457143D01*
X60733333Y-116504762D01*
X60828571Y-116552381D01*
X61019048Y-116552381D01*
X61114286Y-116504762D01*
X61161905Y-116457143D01*
X61209524Y-116361905D01*
X61209524Y-116123810D01*
X61161905Y-116028571D01*
X61114286Y-115980952D01*
X61019048Y-115933333D01*
X60828571Y-115933333D01*
X60733333Y-115980952D01*
X60685714Y-116028571D01*
X60638095Y-116123810D01*
X58157143Y-124052381D02*
X57823809Y-123576190D01*
X57585714Y-124052381D02*
X57585714Y-123052381D01*
X57966667Y-123052381D01*
X58061905Y-123100000D01*
X58109524Y-123147619D01*
X58157143Y-123242857D01*
X58157143Y-123385714D01*
X58109524Y-123480952D01*
X58061905Y-123528571D01*
X57966667Y-123576190D01*
X57585714Y-123576190D01*
X59014286Y-123385714D02*
X59014286Y-124052381D01*
X58776190Y-123004762D02*
X58538095Y-123719048D01*
X59157143Y-123719048D01*
X59490476Y-123147619D02*
X59538095Y-123100000D01*
X59633333Y-123052381D01*
X59871429Y-123052381D01*
X59966667Y-123100000D01*
X60014286Y-123147619D01*
X60061905Y-123242857D01*
X60061905Y-123338095D01*
X60014286Y-123480952D01*
X59442857Y-124052381D01*
X60061905Y-124052381D01*
M02*
