M48
;DRILL file {KiCad 4.0.7} date 02/05/18 06:25:37
;FORMAT={-:-/ absolute / inch / decimal}
FMAT,2
INCH,TZ
T1C0.016
T2C0.020
T3C0.030
T4C0.031
T5C0.039
T6C0.047
%
G90
G05
M72
T1
X1.0551Y-3.7638
X1.2362Y-4.1024
X1.2992Y-3.7323
X1.5591Y-2.3543
X1.5748Y-2.6693
X1.5827Y-2.
X1.5984Y-3.2677
X1.6535Y-3.5669
X1.7559Y-2.5197
X1.7559Y-2.9685
X1.7638Y-1.8504
X1.7638Y-2.1732
X1.7638Y-2.874
X1.7795Y-3.315
X1.8031Y-3.937
X1.811Y-3.3858
X1.8268Y-1.748
X1.8268Y-2.0787
X1.8268Y-2.4252
X1.8268Y-2.7795
X1.8819Y-3.3386
X1.8898Y-3.4094
X1.9291Y-1.937
X1.9291Y-2.2677
X1.9291Y-2.6142
X1.9291Y-2.9685
X2.0236Y-1.9764
X2.0236Y-2.2835
X2.0236Y-2.6299
X2.063Y-3.6772
X2.0827Y-4.0315
X2.1811Y-2.3465
X2.1811Y-2.7244
X2.185Y-3.8307
X2.189Y-2.0551
X2.189Y-3.7795
X2.2756Y-3.3228
X2.2835Y-3.4331
X2.2992Y-3.2047
X2.3071Y-3.2441
X2.3386Y-3.5512
X2.3543Y-2.0551
X2.3543Y-2.4409
X2.3543Y-2.8189
X2.4646Y-3.8268
X2.5Y-4.7165
X2.5118Y-4.6378
X2.5276Y-2.5276
X2.5276Y-2.8583
X2.5354Y-2.1811
X2.5433Y-1.8346
X2.6142Y-1.7402
X2.6142Y-2.0866
X2.6142Y-2.4252
X2.6142Y-2.7598
X2.7165Y-1.9291
X2.7165Y-2.2756
X2.7165Y-2.6142
X2.7165Y-2.9528
X2.7874Y-2.3543
X2.7874Y-2.6457
X2.7874Y-2.9528
X2.7874Y-3.1181
X2.7953Y-3.748
X2.8031Y-2.0079
X2.9685Y-2.0787
X3.0157Y-2.3937
X3.0472Y-4.563
X3.063Y-2.6929
X3.063Y-4.5315
X3.0866Y-4.0079
X3.1024Y-4.5276
X3.1417Y-1.9606
X3.1417Y-2.315
X3.1417Y-2.6929
X3.1417Y-4.5315
X3.2205Y-3.0472
X3.2598Y-3.1417
X3.2992Y-3.1811
X3.3307Y-2.9449
X3.3386Y-2.5197
X3.3465Y-1.8425
X3.3465Y-2.189
X3.3465Y-2.8661
X3.4094Y-1.748
X3.4173Y-2.0866
X3.4173Y-2.4252
X3.4173Y-2.7717
X3.4252Y-3.5984
X3.4882Y-3.2992
X3.5197Y-1.9134
X3.5197Y-2.2677
X3.5197Y-2.6063
X3.5197Y-2.9606
X3.5827Y-2.378
X3.5984Y-2.0472
X3.5984Y-2.7165
X3.6378Y-3.4803
X3.6535Y-3.6772
X3.689Y-4.8031
X3.7559Y-2.7953
X3.7638Y-2.0945
X3.7835Y-4.8031
X3.7874Y-2.4567
X3.8543Y-4.8346
X3.8819Y-3.2835
X3.9055Y-3.4252
X3.9134Y-3.1181
X3.9134Y-3.5748
X3.9449Y-3.0709
X3.9685Y-2.0945
X3.9685Y-2.3937
X3.9685Y-2.748
X4.0197Y-4.8031
X4.1575Y-2.189
X4.1575Y-2.5276
X4.1654Y-1.8425
X4.1654Y-2.874
X4.1654Y-4.8189
X4.2362Y-1.748
X4.2362Y-2.0945
X4.2362Y-2.4252
X4.2362Y-2.7795
X4.2559Y-4.8031
X4.315Y-4.0512
X4.3386Y-1.937
X4.3386Y-2.2756
X4.3386Y-2.6142
X4.3386Y-2.9685
X4.3622Y-4.8504
X4.3858Y-3.1339
X4.4173Y-2.5591
X4.4173Y-2.9528
X4.4252Y-2.0157
X4.4252Y-2.2362
X4.4646Y-3.2126
X4.4685Y-4.8031
X4.622Y-2.126
X4.6614Y-2.3465
X4.7087Y-2.685
T2
X1.1421Y-3.
X1.1421Y-3.1
X1.1421Y-3.2
X1.1421Y-3.4
X1.3421Y-3.
X1.3421Y-3.1
X1.3421Y-3.2
X1.3421Y-3.4
T3
X2.685Y-4.0028
X2.685Y-4.1028
X2.685Y-4.2028
X2.685Y-4.3028
X2.685Y-4.4028
X2.685Y-4.5028
X2.685Y-4.6028
T4
X2.9606Y-3.252
X2.9606Y-3.352
X2.9606Y-3.452
X2.9606Y-3.552
X2.9606Y-3.652
X2.9606Y-3.752
X2.9606Y-3.852
X2.9606Y-3.952
X2.9606Y-4.052
X2.9606Y-4.152
X2.9606Y-4.252
X2.9606Y-4.352
X2.9606Y-4.452
X2.9606Y-4.552
X2.9606Y-4.652
X3.5606Y-3.252
X3.5606Y-3.352
X3.5606Y-3.452
X3.5606Y-3.552
X3.5606Y-3.652
X3.5606Y-3.752
X3.5606Y-3.852
X3.5606Y-3.952
X3.5606Y-4.052
X3.5606Y-4.152
X3.5606Y-4.252
X3.5606Y-4.352
X3.5606Y-4.452
X3.5606Y-4.552
X3.5606Y-4.652
T5
X1.8287Y-1.122
X1.8287Y-1.222
X1.8287Y-1.322
X1.8287Y-1.422
X1.8287Y-1.522
X1.9287Y-1.122
X1.9287Y-1.222
X1.9287Y-1.322
X1.9287Y-1.422
X1.9287Y-1.522
X2.6161Y-1.122
X2.6161Y-1.222
X2.6161Y-1.322
X2.6161Y-1.422
X2.6161Y-1.522
X2.7161Y-1.122
X2.7161Y-1.222
X2.7161Y-1.322
X2.7161Y-1.422
X2.7161Y-1.522
X3.4173Y-1.1142
X3.4173Y-1.2142
X3.4173Y-1.3142
X3.4173Y-1.4142
X3.4173Y-1.5142
X3.5173Y-1.1142
X3.5173Y-1.2142
X3.5173Y-1.3142
X3.5173Y-1.4142
X3.5173Y-1.5142
X4.2402Y-1.122
X4.2402Y-1.222
X4.2402Y-1.322
X4.2402Y-1.422
X4.2402Y-1.522
X4.3402Y-1.122
X4.3402Y-1.222
X4.3402Y-1.322
X4.3402Y-1.422
X4.3402Y-1.522
T6
X1.0866Y-4.3268
X1.0866Y-4.4646
X4.7736Y-3.4154
X4.7736Y-3.5531
X4.7736Y-4.0157
X4.7736Y-4.1535
X4.7736Y-4.2913
X4.7736Y-4.4291
T0
M30
