G04 #@! TF.FileFunction,Soldermask,Top*
%FSLAX46Y46*%
G04 Gerber Fmt 4.6, Leading zero omitted, Abs format (unit mm)*
G04 Created by KiCad (PCBNEW 4.0.7) date 02/05/18 06:25:40*
%MOMM*%
%LPD*%
G01*
G04 APERTURE LIST*
%ADD10C,0.100000*%
%ADD11R,2.000000X2.000000*%
%ADD12O,2.000000X2.000000*%
%ADD13C,2.400000*%
%ADD14C,3.400000*%
%ADD15C,3.600000*%
%ADD16R,1.900000X1.650000*%
%ADD17R,1.650000X1.900000*%
%ADD18R,1.900000X1.700000*%
%ADD19R,1.200000X2.300000*%
%ADD20R,1.600000X1.300000*%
%ADD21R,1.300000X1.600000*%
%ADD22R,2.400000X4.200000*%
%ADD23R,2.400000X1.900000*%
%ADD24C,1.400000*%
%ADD25R,1.543000X0.908000*%
%ADD26R,1.960000X1.050000*%
%ADD27R,2.100000X2.100000*%
%ADD28O,2.100000X2.100000*%
%ADD29R,4.000000X2.200000*%
%ADD30O,4.000000X2.200000*%
%ADD31R,2.300000X1.200000*%
G04 APERTURE END LIST*
D10*
D11*
X75200000Y-82600000D03*
D12*
X90440000Y-115620000D03*
X75200000Y-85140000D03*
X90440000Y-113080000D03*
X75200000Y-87680000D03*
X90440000Y-110540000D03*
X75200000Y-90220000D03*
X90440000Y-108000000D03*
X75200000Y-92760000D03*
X90440000Y-105460000D03*
X75200000Y-95300000D03*
X90440000Y-102920000D03*
X75200000Y-97840000D03*
X90440000Y-100380000D03*
X75200000Y-100380000D03*
X90440000Y-97840000D03*
X75200000Y-102920000D03*
X90440000Y-95300000D03*
X75200000Y-105460000D03*
X90440000Y-92760000D03*
X75200000Y-108000000D03*
X90440000Y-90220000D03*
X75200000Y-110540000D03*
X90440000Y-87680000D03*
X75200000Y-113080000D03*
X90440000Y-85140000D03*
X75200000Y-115620000D03*
X90440000Y-82600000D03*
X75200000Y-118160000D03*
X90440000Y-118160000D03*
D13*
X68200000Y-101670000D03*
X68200000Y-104210000D03*
X68200000Y-106750000D03*
X68200000Y-109290000D03*
X68200000Y-111830000D03*
X68200000Y-114370000D03*
X68200000Y-116910000D03*
D14*
X44070000Y-121990000D03*
D15*
X121500000Y-121500000D03*
X28500000Y-28500000D03*
X28500000Y-121500000D03*
X121500000Y-28500000D03*
D16*
X29450000Y-97200000D03*
X26950000Y-97200000D03*
D17*
X45800000Y-95750000D03*
X45800000Y-98250000D03*
D16*
X123500000Y-81500000D03*
X121000000Y-81500000D03*
D18*
X29900000Y-104100000D03*
X27200000Y-104100000D03*
X69550000Y-95100000D03*
X66850000Y-95100000D03*
D19*
X40050000Y-88700000D03*
X41950000Y-88700000D03*
X41000000Y-85700000D03*
X94100000Y-120250000D03*
X96000000Y-120250000D03*
X95050000Y-117250000D03*
X100100000Y-120250000D03*
X102000000Y-120250000D03*
X101050000Y-117250000D03*
X106100000Y-120250000D03*
X108000000Y-120250000D03*
X107050000Y-117250000D03*
X111600000Y-120250000D03*
X113500000Y-120250000D03*
X112550000Y-117250000D03*
D20*
X26950000Y-101100000D03*
X29150000Y-101100000D03*
X66850000Y-92100000D03*
X69050000Y-92100000D03*
X117350000Y-81500000D03*
X115150000Y-81500000D03*
X98900000Y-101200000D03*
X96700000Y-101200000D03*
X98900000Y-103200000D03*
X96700000Y-103200000D03*
D21*
X100050000Y-110650000D03*
X100050000Y-112850000D03*
X102800000Y-110650000D03*
X102800000Y-112850000D03*
X105550000Y-110650000D03*
X105550000Y-112850000D03*
X108300000Y-110650000D03*
X108300000Y-112850000D03*
X62700000Y-73850000D03*
X62700000Y-71650000D03*
X103950000Y-74350000D03*
X103950000Y-72150000D03*
X43300000Y-74350000D03*
X43300000Y-72150000D03*
X83050000Y-74150000D03*
X83050000Y-71950000D03*
X72700000Y-71650000D03*
X72700000Y-73850000D03*
X113950000Y-72150000D03*
X113950000Y-74350000D03*
X52700000Y-72150000D03*
X52700000Y-74350000D03*
X93050000Y-71950000D03*
X93050000Y-74150000D03*
X62700000Y-65350000D03*
X62700000Y-63150000D03*
X103950000Y-65350000D03*
X103950000Y-63150000D03*
X43300000Y-65350000D03*
X43300000Y-63150000D03*
X83050000Y-65150000D03*
X83050000Y-62950000D03*
X72700000Y-63150000D03*
X72700000Y-65350000D03*
X113950000Y-63150000D03*
X113950000Y-65350000D03*
X52700000Y-63150000D03*
X52700000Y-65350000D03*
X93050000Y-62950000D03*
X93050000Y-65150000D03*
X62700000Y-56600000D03*
X62700000Y-54400000D03*
X103950000Y-56850000D03*
X103950000Y-54650000D03*
X43300000Y-56600000D03*
X43300000Y-54400000D03*
X83050000Y-56650000D03*
X83050000Y-54450000D03*
X72700000Y-54400000D03*
X72700000Y-56600000D03*
X113950000Y-54650000D03*
X113950000Y-56850000D03*
X52700000Y-54400000D03*
X52700000Y-56600000D03*
X93050000Y-54450000D03*
X93050000Y-56650000D03*
X62700000Y-47850000D03*
X62700000Y-45650000D03*
X103950000Y-48100000D03*
X103950000Y-45900000D03*
X43300000Y-48100000D03*
X43300000Y-45900000D03*
X83050000Y-47900000D03*
X83050000Y-45700000D03*
X72700000Y-45650000D03*
X72700000Y-47850000D03*
X113950000Y-45900000D03*
X113950000Y-48100000D03*
X52700000Y-45900000D03*
X52700000Y-48100000D03*
X93050000Y-45700000D03*
X93050000Y-47900000D03*
D22*
X41900000Y-97050000D03*
D23*
X35600000Y-97050000D03*
X35600000Y-99350000D03*
X35600000Y-94750000D03*
D24*
X29010000Y-86360000D03*
X34090000Y-86360000D03*
X29010000Y-81280000D03*
X34090000Y-81280000D03*
X29010000Y-78740000D03*
X29010000Y-76200000D03*
X34090000Y-78740000D03*
X34090000Y-76200000D03*
D25*
X53944000Y-81995000D03*
X53944000Y-83265000D03*
X53944000Y-84535000D03*
X53944000Y-85805000D03*
X53944000Y-87075000D03*
X53944000Y-88345000D03*
X53944000Y-89615000D03*
X53944000Y-90885000D03*
X53944000Y-92155000D03*
X53944000Y-93425000D03*
X53944000Y-94695000D03*
X53944000Y-95965000D03*
X53944000Y-97235000D03*
X53944000Y-98505000D03*
X61056000Y-98505000D03*
X61056000Y-97235000D03*
X61056000Y-95965000D03*
X61056000Y-94695000D03*
X61056000Y-93425000D03*
X61056000Y-92155000D03*
X61056000Y-90885000D03*
X61056000Y-89615000D03*
X61056000Y-88345000D03*
X61056000Y-87075000D03*
X61056000Y-85805000D03*
X61056000Y-84535000D03*
X61056000Y-83265000D03*
X61056000Y-81995000D03*
X94444000Y-81995000D03*
X94444000Y-83265000D03*
X94444000Y-84535000D03*
X94444000Y-85805000D03*
X94444000Y-87075000D03*
X94444000Y-88345000D03*
X94444000Y-89615000D03*
X94444000Y-90885000D03*
X94444000Y-92155000D03*
X94444000Y-93425000D03*
X94444000Y-94695000D03*
X94444000Y-95965000D03*
X94444000Y-97235000D03*
X94444000Y-98505000D03*
X101556000Y-98505000D03*
X101556000Y-97235000D03*
X101556000Y-95965000D03*
X101556000Y-94695000D03*
X101556000Y-93425000D03*
X101556000Y-92155000D03*
X101556000Y-90885000D03*
X101556000Y-89615000D03*
X101556000Y-88345000D03*
X101556000Y-87075000D03*
X101556000Y-85805000D03*
X101556000Y-84535000D03*
X101556000Y-83265000D03*
X101556000Y-81995000D03*
D26*
X66350000Y-71650000D03*
X66350000Y-72600000D03*
X66350000Y-73550000D03*
X69050000Y-73550000D03*
X69050000Y-71650000D03*
X69050000Y-72600000D03*
X107600000Y-72050000D03*
X107600000Y-73000000D03*
X107600000Y-73950000D03*
X110300000Y-73950000D03*
X110300000Y-72050000D03*
X110300000Y-73000000D03*
X46350000Y-72050000D03*
X46350000Y-73000000D03*
X46350000Y-73950000D03*
X49050000Y-73950000D03*
X49050000Y-72050000D03*
X49050000Y-73000000D03*
X86700000Y-71850000D03*
X86700000Y-72800000D03*
X86700000Y-73750000D03*
X89400000Y-73750000D03*
X89400000Y-71850000D03*
X89400000Y-72800000D03*
X66350000Y-63050000D03*
X66350000Y-64000000D03*
X66350000Y-64950000D03*
X69050000Y-64950000D03*
X69050000Y-63050000D03*
X69050000Y-64000000D03*
X107600000Y-63050000D03*
X107600000Y-64000000D03*
X107600000Y-64950000D03*
X110300000Y-64950000D03*
X110300000Y-63050000D03*
X110300000Y-64000000D03*
X46350000Y-63050000D03*
X46350000Y-64000000D03*
X46350000Y-64950000D03*
X49050000Y-64950000D03*
X49050000Y-63050000D03*
X49050000Y-64000000D03*
X86700000Y-62850000D03*
X86700000Y-63800000D03*
X86700000Y-64750000D03*
X89400000Y-64750000D03*
X89400000Y-62850000D03*
X89400000Y-63800000D03*
X66350000Y-54300000D03*
X66350000Y-55250000D03*
X66350000Y-56200000D03*
X69050000Y-56200000D03*
X69050000Y-54300000D03*
X69050000Y-55250000D03*
X107600000Y-54550000D03*
X107600000Y-55500000D03*
X107600000Y-56450000D03*
X110300000Y-56450000D03*
X110300000Y-54550000D03*
X110300000Y-55500000D03*
X46350000Y-54300000D03*
X46350000Y-55250000D03*
X46350000Y-56200000D03*
X49050000Y-56200000D03*
X49050000Y-54300000D03*
X49050000Y-55250000D03*
X86700000Y-54350000D03*
X86700000Y-55300000D03*
X86700000Y-56250000D03*
X89400000Y-56250000D03*
X89400000Y-54350000D03*
X89400000Y-55300000D03*
X66350000Y-45600000D03*
X66350000Y-46550000D03*
X66350000Y-47500000D03*
X69050000Y-47500000D03*
X69050000Y-45600000D03*
X69050000Y-46550000D03*
X107600000Y-45800000D03*
X107600000Y-46750000D03*
X107600000Y-47700000D03*
X110300000Y-47700000D03*
X110300000Y-45800000D03*
X110300000Y-46750000D03*
X46350000Y-45800000D03*
X46350000Y-46750000D03*
X46350000Y-47700000D03*
X49050000Y-47700000D03*
X49050000Y-45800000D03*
X49050000Y-46750000D03*
X86700000Y-45600000D03*
X86700000Y-46550000D03*
X86700000Y-47500000D03*
X89400000Y-47500000D03*
X89400000Y-45600000D03*
X89400000Y-46550000D03*
D27*
X66450000Y-28500000D03*
D28*
X68990000Y-28500000D03*
X66450000Y-31040000D03*
X68990000Y-31040000D03*
X66450000Y-33580000D03*
X68990000Y-33580000D03*
X66450000Y-36120000D03*
X68990000Y-36120000D03*
X66450000Y-38660000D03*
X68990000Y-38660000D03*
D27*
X46450000Y-28500000D03*
D28*
X48990000Y-28500000D03*
X46450000Y-31040000D03*
X48990000Y-31040000D03*
X46450000Y-33580000D03*
X48990000Y-33580000D03*
X46450000Y-36120000D03*
X48990000Y-36120000D03*
X46450000Y-38660000D03*
X48990000Y-38660000D03*
D27*
X107700000Y-28500000D03*
D28*
X110240000Y-28500000D03*
X107700000Y-31040000D03*
X110240000Y-31040000D03*
X107700000Y-33580000D03*
X110240000Y-33580000D03*
X107700000Y-36120000D03*
X110240000Y-36120000D03*
X107700000Y-38660000D03*
X110240000Y-38660000D03*
D27*
X86800000Y-28300000D03*
D28*
X89340000Y-28300000D03*
X86800000Y-30840000D03*
X89340000Y-30840000D03*
X86800000Y-33380000D03*
X89340000Y-33380000D03*
X86800000Y-35920000D03*
X89340000Y-35920000D03*
X86800000Y-38460000D03*
X89340000Y-38460000D03*
D29*
X27600000Y-113400000D03*
D30*
X27600000Y-109900000D03*
D29*
X121250000Y-102000000D03*
D30*
X121250000Y-105500000D03*
X121250000Y-109000000D03*
X121250000Y-112500000D03*
D29*
X121250000Y-86750000D03*
D30*
X121250000Y-90250000D03*
D18*
X68050000Y-123600000D03*
X70750000Y-123600000D03*
D31*
X61900000Y-119750000D03*
X61900000Y-117850000D03*
X58900000Y-118800000D03*
D20*
X63900000Y-123600000D03*
X61700000Y-123600000D03*
M02*
