G04 #@! TF.FileFunction,Soldermask,Bot*
%FSLAX46Y46*%
G04 Gerber Fmt 4.6, Leading zero omitted, Abs format (unit mm)*
G04 Created by KiCad (PCBNEW 4.0.7) date 02/05/18 06:25:40*
%MOMM*%
%LPD*%
G01*
G04 APERTURE LIST*
%ADD10C,0.100000*%
%ADD11R,2.000000X2.000000*%
%ADD12O,2.000000X2.000000*%
%ADD13C,2.400000*%
%ADD14C,3.400000*%
%ADD15C,3.600000*%
%ADD16C,1.400000*%
%ADD17R,2.100000X2.100000*%
%ADD18O,2.100000X2.100000*%
%ADD19R,4.000000X2.200000*%
%ADD20O,4.000000X2.200000*%
G04 APERTURE END LIST*
D10*
D11*
X75200000Y-82600000D03*
D12*
X90440000Y-115620000D03*
X75200000Y-85140000D03*
X90440000Y-113080000D03*
X75200000Y-87680000D03*
X90440000Y-110540000D03*
X75200000Y-90220000D03*
X90440000Y-108000000D03*
X75200000Y-92760000D03*
X90440000Y-105460000D03*
X75200000Y-95300000D03*
X90440000Y-102920000D03*
X75200000Y-97840000D03*
X90440000Y-100380000D03*
X75200000Y-100380000D03*
X90440000Y-97840000D03*
X75200000Y-102920000D03*
X90440000Y-95300000D03*
X75200000Y-105460000D03*
X90440000Y-92760000D03*
X75200000Y-108000000D03*
X90440000Y-90220000D03*
X75200000Y-110540000D03*
X90440000Y-87680000D03*
X75200000Y-113080000D03*
X90440000Y-85140000D03*
X75200000Y-115620000D03*
X90440000Y-82600000D03*
X75200000Y-118160000D03*
X90440000Y-118160000D03*
D13*
X68200000Y-101670000D03*
X68200000Y-104210000D03*
X68200000Y-106750000D03*
X68200000Y-109290000D03*
X68200000Y-111830000D03*
X68200000Y-114370000D03*
X68200000Y-116910000D03*
D14*
X44070000Y-121990000D03*
D15*
X121500000Y-121500000D03*
X28500000Y-28500000D03*
X28500000Y-121500000D03*
X121500000Y-28500000D03*
D16*
X29010000Y-86360000D03*
X34090000Y-86360000D03*
X29010000Y-81280000D03*
X34090000Y-81280000D03*
X29010000Y-78740000D03*
X29010000Y-76200000D03*
X34090000Y-78740000D03*
X34090000Y-76200000D03*
D17*
X66450000Y-28500000D03*
D18*
X68990000Y-28500000D03*
X66450000Y-31040000D03*
X68990000Y-31040000D03*
X66450000Y-33580000D03*
X68990000Y-33580000D03*
X66450000Y-36120000D03*
X68990000Y-36120000D03*
X66450000Y-38660000D03*
X68990000Y-38660000D03*
D17*
X46450000Y-28500000D03*
D18*
X48990000Y-28500000D03*
X46450000Y-31040000D03*
X48990000Y-31040000D03*
X46450000Y-33580000D03*
X48990000Y-33580000D03*
X46450000Y-36120000D03*
X48990000Y-36120000D03*
X46450000Y-38660000D03*
X48990000Y-38660000D03*
D17*
X107700000Y-28500000D03*
D18*
X110240000Y-28500000D03*
X107700000Y-31040000D03*
X110240000Y-31040000D03*
X107700000Y-33580000D03*
X110240000Y-33580000D03*
X107700000Y-36120000D03*
X110240000Y-36120000D03*
X107700000Y-38660000D03*
X110240000Y-38660000D03*
D17*
X86800000Y-28300000D03*
D18*
X89340000Y-28300000D03*
X86800000Y-30840000D03*
X89340000Y-30840000D03*
X86800000Y-33380000D03*
X89340000Y-33380000D03*
X86800000Y-35920000D03*
X89340000Y-35920000D03*
X86800000Y-38460000D03*
X89340000Y-38460000D03*
D19*
X27600000Y-113400000D03*
D20*
X27600000Y-109900000D03*
D19*
X121250000Y-102000000D03*
D20*
X121250000Y-105500000D03*
X121250000Y-109000000D03*
X121250000Y-112500000D03*
D19*
X121250000Y-86750000D03*
D20*
X121250000Y-90250000D03*
M02*
